<svg id="Layer_1" data-name="Layer 1" xmlns="http://www.w3.org/2000/svg" viewBox="0 0 361.92 322.54"><path id="Path_95" data-name="Path 95" d="M359.65,154.11c-3.63,8.74-11.23,16.62-19.38,24.09q-10.77,9.86-23,19-3.4,2.55-6.9,5l-1.63,1.14q-2.16,1.53-4.39,3l-.18.12q-2.16,1.47-4.37,2.91a119,119,0,0,1-15.5,8.89c-1.91.89-3.88,1.71-5.93,2.44-1.1.41-2.23.78-3.38,1.13-1.89.58-3.83,1.08-5.86,1.49l-1,.2c-2.07.39-4.17.67-6.29.87a96.89,96.89,0,0,1-23.57-1c-3.89-.61-7.72-1.39-11.43-2.28l-1.36-.33c-12.62-3.16-24.46-7.44-37.17-10.45q-6.57-1.56-13.39-2.65-3.33-.52-6.7-1c-5.28-.65-10.63-1.09-16-1.32a97.78,97.78,0,0,0-21.62,1.09c-.92.16-1.83.35-2.72.56-1.14.27-2.25.57-3.34.91a59.29,59.29,0,0,0-8.58,3.53l-1.63.82h0c-1.69.86-3.35,1.74-5,2.59a64.24,64.24,0,0,1-9.48,4,53.71,53.71,0,0,1-5.45,1.39,80.41,80.41,0,0,1-15.25,1.38c-2.51,0-5-.05-7.5-.18h-.06c-.85,0-1.7-.1-2.55-.16-3.88-.27-7.74-.68-11.55-1.23-13-1.92-25.41-5.53-35.36-11.05C8.53,201.68,0,190.51,1.24,179.36c.92-8,6.66-15.49,12.11-22.8C23.49,143,33,129.05,38,114.39,42,102.49,43.24,89.9,52.57,79.2a48.8,48.8,0,0,1,11.25-9.29,72.08,72.08,0,0,1,10.41-5.27,89.4,89.4,0,0,1,12.56-4.09,100.13,100.13,0,0,1,11.26-2.12q3.09-.41,6.24-.62c1.62-.11,3.24-.18,4.87-.21h.25c1,0,2,0,3,0a138.22,138.22,0,0,1,21.68,2c4.49.75,8.93,1.66,13.28,2.68q3.9.9,7.72,1.89l2.33.61c18.15,4.86,34.11,11.57,51.6,17.08l.26.08h0a105.2,105.2,0,0,0,10.93,2.74c2.7.55,5.47,1,8.29,1.43,4.31.63,8.71,1.14,13.14,1.57l1,.1c6.51.63,13.07,1.11,19.45,1.67q3.4.29,6.72.63,2.12.21,4.17.45l3,.35,3.06.38c.67.08,1.33.16,2,.26q6,.8,12,1.81c2.41.42,4.81.86,7.17,1.34q2.58.53,5.1,1.11c1.25.28,2.49.58,3.72.89A115.35,115.35,0,0,1,336.32,107C357.24,118.48,366.6,137.41,359.65,154.11Z" fill="#575da7" opacity="0.1" style="isolation:isolate"/><circle id="Ellipse_6" data-name="Ellipse 6" cx="166.88" cy="318.05" r="4.23" fill="#575da7" opacity="0.1" style="isolation:isolate"/><circle id="Ellipse_7" data-name="Ellipse 7" cx="253.34" cy="308.83" r="4.23" fill="#575da7" opacity="0.1" style="isolation:isolate"/><circle id="Ellipse_8" data-name="Ellipse 8" cx="304.61" cy="318.31" r="4.23" fill="#575da7" opacity="0.1" style="isolation:isolate"/><circle id="Ellipse_9" data-name="Ellipse 9" cx="11.56" cy="36.16" r="11.56" fill="#575da7" opacity="0.1" style="isolation:isolate"/><circle id="Ellipse_10" data-name="Ellipse 10" cx="22.64" cy="93.23" r="11.56" fill="#575da7" opacity="0.1" style="isolation:isolate"/><circle id="Ellipse_11" data-name="Ellipse 11" cx="332.83" cy="72.22" r="11.56" fill="#575da7" opacity="0.1" style="isolation:isolate"/><path id="Path_96" data-name="Path 96" d="M113,73.86a12.26,12.26,0,0,1-.17,2.9c-.63,3-3.33,5-5.94,6.54s-5.48,3-7,5.61a9.56,9.56,0,0,0,.93,10.32,15.17,15.17,0,0,0,9.26,5.42,21.45,21.45,0,0,0,18.59-5.08,20.28,20.28,0,0,0,6.16-18.17c-2.66.38-5-2-5.89-4.52a39.53,39.53,0,0,1-1-8,2.74,2.74,0,0,0-.39-1.27,2.91,2.91,0,0,0-1.65-.9c-3.07-.84-8.24-2.69-11.43-2C111.51,65.41,112.93,71.45,113,73.86Z" fill="#be6f72"/><path id="Path_97" data-name="Path 97" d="M113,73.86a12.26,12.26,0,0,1-.17,2.9c-.63,3-3.33,5-5.94,6.54s-5.48,3-7,5.61a9.56,9.56,0,0,0,.93,10.32,15.17,15.17,0,0,0,9.26,5.42,21.45,21.45,0,0,0,18.59-5.08,20.28,20.28,0,0,0,6.16-18.17c-2.66.38-5-2-5.89-4.52a39.53,39.53,0,0,1-1-8,2.74,2.74,0,0,0-.39-1.27,2.91,2.91,0,0,0-1.65-.9c-3.07-.84-8.24-2.69-11.43-2C111.51,65.41,112.93,71.45,113,73.86Z" opacity="0.1" style="isolation:isolate"/><path id="Path_98" data-name="Path 98" d="M109.26,215a63.74,63.74,0,0,1-9.48,4,51,51,0,0,1-5.44,1.39,34.06,34.06,0,0,1,.39-7.34,36.85,36.85,0,0,0,.71-4.18A10.92,10.92,0,0,0,94.18,203a52.15,52.15,0,0,1,10.5-1h.22a4.06,4.06,0,0,1,1.25.23,3.44,3.44,0,0,1,1.35,1.19,7.94,7.94,0,0,1,.5.78,12.44,12.44,0,0,1,1.47,5.82A38,38,0,0,1,109.26,215Z" fill="#be6f72"/><path id="Path_99" data-name="Path 99" d="M127.85,207.16c-1.13.26-2.24.56-3.34.9a61.52,61.52,0,0,0-8.57,3.53,12.25,12.25,0,0,1-.26-2.64A14.75,14.75,0,0,1,127,206.64a1.52,1.52,0,0,1,.71.28A.88.88,0,0,1,127.85,207.16Z" fill="#be6f72"/><path id="Path_100" data-name="Path 100" d="M133.33,191.06a24.75,24.75,0,0,1-1.27,6.14c-.8,2.1-2.1,4.14-1.94,6.39.08,1,.41,2,.46,3-.92.17-1.83.36-2.72.57-1.14.26-2.25.57-3.34.91a58.83,58.83,0,0,0-8.58,3.53l-1.63.81h0c-.22,0-.44-.06-.67-.11a6.51,6.51,0,0,1-4.17-2.28,3.72,3.72,0,0,1-.49-1c-.52-1.56,0-3.49-1.06-4.72l0,0,0,0a11.45,11.45,0,0,1-1.94,1.39h0a13,13,0,0,1-10.52,1,11,11,0,0,1-2-.89,4.61,4.61,0,0,1-2.75-3.9c.06-.93.59-1.83.45-2.75a5.7,5.7,0,0,0-.86-1.79c-2.14-3.83.41-8.74-.93-12.9l-.1-.3c-.1-.27-.22-.53-.33-.79-.27-.61-.58-1.21-.82-1.83a10.33,10.33,0,0,1-.47-1.62,19.79,19.79,0,0,1-.33-4.86,50.37,50.37,0,0,1,1.86-12.79c.19-.73.41-1.77.69-2.89h0A22.55,22.55,0,0,1,90.94,156a4.55,4.55,0,0,1,2.69-2.91c1.8-.42,4.52.47,6.33.68l7.16.86,14.31,1.71a15.7,15.7,0,0,1,7.1,2,3.69,3.69,0,0,1,.4.29,7.91,7.91,0,0,1,1.43,1.46c.15.19.29.39.42.59A13,13,0,0,1,132,163c1.78,4.27,1.82,9,1.83,13.65A136.12,136.12,0,0,1,133.33,191.06Z" fill="#403d56"/><path id="Path_101" data-name="Path 101" d="M105.9,205.84c-.43-1.66-1.34-4.06-1.47-4.72a59.19,59.19,0,0,1-1-6.63c-.35-4-1-9.57.41-13.35a9.08,9.08,0,0,1,3.08,4.05c2.21,4.91-.27,10.94,1.8,15.91a2.66,2.66,0,0,1,.28,1,2.27,2.27,0,0,1-.44,1.17l-.7,1.16Z" opacity="0.1" style="isolation:isolate"/><path id="Path_102" data-name="Path 102" d="M151.81,54.16c2.35-3.83,5.56-7.59,5.36-12.07a23.63,23.63,0,0,0-1-4.71,29.93,29.93,0,0,1-.22-13.8,15.57,15.57,0,0,1,11.27,2.52,6.43,6.43,0,0,1,2.49,2.8,8.15,8.15,0,0,1,.28,3.47c-.18,2.69-.42,5.55-2.07,7.66-.51.65-1.14,1.21-1.64,1.88a12,12,0,0,0-1.58,3.26l-5.42,14.74c-2.73,7.44-5.7,15.21-11.72,20.35-.15.13-4.47-6-4.83-6.62-1.44-2.52-.81-3.59.94-5.7C147.13,63.77,149,58.74,151.81,54.16Z" fill="#be6f72"/><path id="Path_103" data-name="Path 103" d="M89.7,179.84a24.21,24.21,0,0,1-.28,3.29c-.06.4-.12.8-.2,1.2-1.09,5.67-3.8,11.07-5.69,16.6a96.06,96.06,0,0,0-4.46,20.88c-2.51,0-5-.06-7.5-.19h-.08c-.85,0-1.7-.09-2.55-.16.77-6.76-.64-13.86.74-20.62.55-2.72,1.5-5.36,2.07-8.07.17-.8.31-1.61.4-2.42a6.25,6.25,0,0,1,.46-2.26c0-.07.07-.14.11-.2a5.44,5.44,0,0,1,1.12-1.27,28,28,0,0,1,13.73-6.55C88.29,180,89,179.89,89.7,179.84Z" fill="#f7bdbe"/><path id="Path_104" data-name="Path 104" d="M89.7,179.84a24.21,24.21,0,0,1-.28,3.29c-.06.4-.12.8-.2,1.2-1.09,5.67-3.8,11.07-5.69,16.6a96.06,96.06,0,0,0-4.46,20.88c-2.51,0-5-.06-7.5-.19h-.08c-.85,0-1.7-.09-2.55-.16.77-6.76-.64-13.86.74-20.62.55-2.72,1.5-5.36,2.07-8.07.17-.8.31-1.61.4-2.42a6.25,6.25,0,0,1,.46-2.26c0-.07.07-.14.11-.2a5.44,5.44,0,0,1,1.12-1.27,28,28,0,0,1,13.73-6.55C88.29,180,89,179.89,89.7,179.84Z" opacity="0.1" style="isolation:isolate"/><path id="Path_105" data-name="Path 105" d="M73.53,194.37a49.59,49.59,0,0,1-.43,5.3c-.85,7.17-1,14.67-1.6,22L69,221.46c-3.88-.27-7.74-.68-11.55-1.24.3-1.64.59-3.28.89-4.92a26.49,26.49,0,0,0,.62-6.08,35.48,35.48,0,0,0-1-5.7,87.13,87.13,0,0,0-2.81-12.24,15.88,15.88,0,0,0-3.52-5.73c6-2.35,11.71-2.48,18.13-2.24a2.33,2.33,0,0,1,1.31.33,2.29,2.29,0,0,1,.65,1,24.68,24.68,0,0,1,1.79,7.27A22.67,22.67,0,0,1,73.53,194.37Z" fill="#f7bdbe"/><circle id="Ellipse_12" data-name="Ellipse 12" cx="121.66" cy="59.78" r="12.43" fill="#be6f72"/><path id="Path_106" data-name="Path 106" d="M124.25,88.84c1.59-2.72,3-6.12,6.06-6.87a9.41,9.41,0,0,1,5.21.73,2.67,2.67,0,0,1,1.28.74,2.5,2.5,0,0,1,.38,1.32,86,86,0,0,1-.05,16.9c-.4,4-1.09,7.93-1.21,11.93-.16,5.54.75,11.07.45,16.61a76.89,76.89,0,0,1-2.06,12.41l-3.83,17.15a2.23,2.23,0,0,1-1.74,2.09,42,42,0,0,1-34-2.66,10.42,10.42,0,0,1-3.65-2.94,8.55,8.55,0,0,1-1-6.46c.41-2.2,1.3-4.28,1.91-6.44A49.15,49.15,0,0,0,93.38,133a81.52,81.52,0,0,0,.08-13.71c-.34-3.13-1-6.22-1.56-9.33a101.89,101.89,0,0,1-1.35-14.16c-.08-2.84,0-6,2-8a9.19,9.19,0,0,1,3.52-2.08,10.43,10.43,0,0,1,6.81-.54,4.88,4.88,0,0,1,3.46,5.3c-.24,1.05-.92,2-1.09,3a4.38,4.38,0,0,0,1.6,3.78C112.6,102.5,121.38,93.76,124.25,88.84Z" fill="#e3e8f4"/><path id="Path_107" data-name="Path 107" d="M124.7,76.13a9.39,9.39,0,0,1,5.45-.32,5.27,5.27,0,0,0,3.46.24c.38-.18.7-.49,1.09-.65,1.05-.46,2.42.11,3.35-.57a3.28,3.28,0,0,0,1-1.89,16.93,16.93,0,0,1,5.62-8.52c-.34,2.44-.58,5.22,1,7.09a7,7,0,0,0,2.81,1.8,8.44,8.44,0,0,0,4.73.66,4.08,4.08,0,0,0,3.32-3.12c-.05,2.4-2.34,4.08-3,6.4-.24.86-.22,1.79-.39,2.67a14.85,14.85,0,0,1-3.46,5.91A42,42,0,0,0,141.37,106a9.68,9.68,0,0,1-.55,2.55,15.76,15.76,0,0,1-1,1.83c-2.34,4-1.62,8.93-.82,13.43a192.79,192.79,0,0,0,4.49,20.87,7.16,7.16,0,0,0,1.61,3.26c-.28,2.79-3.09,4.05-5.61,5.26a27.3,27.3,0,0,0-6.83,4.62,5.37,5.37,0,0,0-1.7,2.37c-.25.9-.07,1.88-.39,2.75s-1.6,1.5-2.16.77c-.7-2.63.5-5.37.44-8.09,0-1.83-.63-3.62-.72-5.45a17.57,17.57,0,0,1,1.18-6.08c1.81-5.49,4-10.92,4.63-16.67s-.55-12-4.62-16.11c-4.84-4.89-7.52-11.5-12.71-16-.81-.71-1.75-1.59-1.61-2.67a2.89,2.89,0,0,1,.61-1.3c1.77-2.51,4.14-4.56,6-7A11.42,11.42,0,0,0,124.7,76.13Z" fill="#403d56"/><path id="Path_108" data-name="Path 108" d="M107.68,81.28a9.86,9.86,0,0,1-.91,1,2.89,2.89,0,0,1-1.43.44,44.9,44.9,0,0,1-5.67.51,17.42,17.42,0,0,0-4.78.3A8.55,8.55,0,0,0,90,87.8a21,21,0,0,0-2,6.33,84.55,84.55,0,0,0-1.45,14.63,38.2,38.2,0,0,0,7-7.23,21.11,21.11,0,0,1,5.1-5.76c1-.63,2.13-1,3.14-1.68a18,18,0,0,0,5-5.42c1-1.5,4-4.43,4.26-6.23a1.85,1.85,0,0,0-1.79-1.88A1.82,1.82,0,0,0,107.68,81.28Z" fill="#403d56"/><path id="Path_109" data-name="Path 109" d="M118.79,51.27a9.47,9.47,0,0,1,1.13.78c2.16,1.51,5.06,1.23,7.68.89a5.62,5.62,0,0,0,2.31-.64,3.6,3.6,0,0,0,1.52-3.38,6.76,6.76,0,0,0-1.56-3.51,12.57,12.57,0,0,0-8.72-4.75,5.59,5.59,0,0,0-2.6.27,21.64,21.64,0,0,0-2.76,1.88c-2.8,1.73-7.12,1-8.93,3.71-1.32,2-.38,4.78-1,7.11-.47,1.74-1.81,3.33-1.55,5.1a8.3,8.3,0,0,0,1.22,2.65A11.69,11.69,0,0,1,107,67.83c1.23.86,2.93-.49,3.28-1.94s0-3,.24-4.49c.51-2.59,2.79-4.49,3.82-6.85C115.07,52.84,116.28,50,118.79,51.27Z" fill="#403d56"/><path id="Path_110" data-name="Path 110" d="M88.64,79.58a2.41,2.41,0,0,0,.16,1.71c.64,1,2.1.61,3.25.75a4.42,4.42,0,0,1,3.45,3.7A12.06,12.06,0,0,1,95,91.07a120.23,120.23,0,0,1-3.66,11.71c-3.8-.45-7.81-1.91-9.83-5.16-1.84-3-1.65-6.72-2.82-10a24.55,24.55,0,0,0-3.75-6.28c2.34.29,4-2.38,4.15-4.73s-.61-4.74-.1-7c.12-.55,9.33,1.17,10.22,1.79C91.79,73.15,89.05,77.08,88.64,79.58Z" fill="#f7bdbe"/><path id="Path_111" data-name="Path 111" d="M88.64,79.58a2.41,2.41,0,0,0,.16,1.71c.64,1,2.1.61,3.25.75a4.42,4.42,0,0,1,3.45,3.7A12.06,12.06,0,0,1,95,91.07a120.23,120.23,0,0,1-3.66,11.71c-3.8-.45-7.81-1.91-9.83-5.16-1.84-3-1.65-6.72-2.82-10a24.55,24.55,0,0,0-3.75-6.28c2.34.29,4-2.38,4.15-4.73s-.61-4.74-.1-7c.12-.55,9.33,1.17,10.22,1.79C91.79,73.15,89.05,77.08,88.64,79.58Z" opacity="0.1" style="isolation:isolate"/><circle id="Ellipse_13" data-name="Ellipse 13" cx="86.59" cy="63.29" r="12.43" fill="#f7bdbe"/><path id="Path_112" data-name="Path 112" d="M82.76,77.78c.45-.71-.33-1.69,0-2.46.22-.46.75-.65,1.16-.95a4.36,4.36,0,0,0,1.2-1.56,18.13,18.13,0,0,0,1.66-12.1c-.29-1.38-.56-3.21.7-3.83a2.39,2.39,0,0,1,1.12-.19c2.27.07,4.46,1.6,6.66,1.06a3.84,3.84,0,0,0,2.81-3.34c.14-2.06-1.4-3.83-2.92-5.22-2.73-2.51-6.89-3.07-10.61-3.13L77.67,46c-2.21,0-4.69,0-6.22,1.61-2.21,2.29-1.1,6-1.42,9.17a9.55,9.55,0,0,1-3.51,6.43c-1.43,1.14-3.4,2.23-3.37,4A6.46,6.46,0,0,0,63.6,69a8.77,8.77,0,0,1-1.32,7.1,19,19,0,0,1-5.38,5.11,14.82,14.82,0,0,0-3.1,2.48,7.36,7.36,0,0,0-1.62,4.12,5.44,5.44,0,0,0,.68,3.33,5.2,5.2,0,0,0,6.8,1.22,11.07,11.07,0,0,0,4.46-6c.54-1.41,1.08-3,2.45-3.67,1.73-.8,3.76.47,4.89,2a25.7,25.7,0,0,0,3.26,4.69,5.84,5.84,0,0,0,8-.66,9,9,0,0,0,1.59-6.12,8.93,8.93,0,0,0-1.59-4.89Z" fill="#403d56"/><path id="Path_113" data-name="Path 113" d="M87.22,94a4.56,4.56,0,0,1-4-1.37,15.68,15.68,0,0,1-2.51-3.54,61.77,61.77,0,0,0-6.42-8.91c-2.09-2.41-5-4.86-8.11-4.12a7.75,7.75,0,0,0-2.83,1.51A20.65,20.65,0,0,0,55.69,96c.24,2,.8,4,1,6.05a40.67,40.67,0,0,1,.13,5.06c-.09,5.14-.26,10.57-3,14.9-4.3,6.7-6.6,14.7-9.75,22a74.93,74.93,0,0,0-3.72,12.34q-.9,3.72-1.78,7.44L34.71,180a10.76,10.76,0,0,0-.37,5.1,7.54,7.54,0,0,0,5.46,5,28.29,28.29,0,0,0,7.68.61A42.85,42.85,0,0,1,62,193.05,15.46,15.46,0,0,0,66,194.24a9.41,9.41,0,0,0,4.12-.76,69,69,0,0,0,10-5.8,40.22,40.22,0,0,1,6.51-3.14,7.13,7.13,0,0,0,3.13-1.76,5.56,5.56,0,0,0,1-2.5c1.08-5,.35-10.23,0-15.36s-3.42-10.54-.88-15a12.36,12.36,0,0,0,1.38-2.77c.34-1.31.05-2.71.34-4a20,20,0,0,1,1.08-2.78,14.79,14.79,0,0,0,.69-5.2,56.71,56.71,0,0,0-1.22-11.47c-1-4.79,2.32-9.51,4.23-14a22.35,22.35,0,0,0,1.93-4.88A14.91,14.91,0,0,0,98,100a41,41,0,0,1-.45-7.34,24.59,24.59,0,0,0-.23-6.58,6,6,0,0,0-4.19-4.66,1.71,1.71,0,0,0-1.44.23,1.84,1.84,0,0,0-.5.89,47.42,47.42,0,0,0-1,6.7C89.88,91.51,89.43,93.52,87.22,94Z" fill="#ed6c71"/><path id="Path_114" data-name="Path 114" d="M57.14,107.68c.13-.88-.28-2.05-1.18-2s-1.18,1.06-1.18,1.89.11,1.77-.47,2.35-1.37.49-2,.91a1.6,1.6,0,0,0-.68,1.33c0,.45.2.87.21,1.31s-.28,1-.72.92a2,2,0,0,0,.29,2.43c.23.22.53.41.6.72a1.64,1.64,0,0,1,0,.66,1.71,1.71,0,0,0,1.36,1.95,1.07,1.07,0,0,0,0,1.52l.08.08a2.5,2.5,0,0,0,1.71.49,10.31,10.31,0,0,0,4-.84,2.36,2.36,0,0,0,1.11-.76,1,1,0,0,0-.09-1.24,1.86,1.86,0,0,0,1.76-.32c.56-.67,0-1.66-.64-2.31a1.28,1.28,0,0,0,1.08-1.45,1.27,1.27,0,0,0-.48-.82c-.21-.15-.49-.28-.51-.53s.18-.42.27-.64c.2-.5-.26-1-.71-1.32-1.06-.7-2.63-.69-3.59-1.4S57,108.64,57.14,107.68Z" fill="#be6f72"/><path id="Path_115" data-name="Path 115" d="M122.91,59.3a15,15,0,0,1-2.32.06.5.5,0,0,0-.56.44l-1.48,11.12a4.55,4.55,0,0,1-1,2.2,4.83,4.83,0,0,0-1.08,3.67V95.68s-.1,2.52,1.84,2.52a28,28,0,0,0,7,0s1.55-.29,1.55-2.62V77a4.57,4.57,0,0,0-1-3.7,4.56,4.56,0,0,1-.93-2.19l-1.54-11.35A.52.52,0,0,0,122.91,59.3Z" fill="#403d56"/><path id="Path_116" data-name="Path 116" d="M122.91,59.3a15,15,0,0,1-2.32.06.5.5,0,0,0-.56.44l-1.48,11.12a4.55,4.55,0,0,1-1,2.2,4.83,4.83,0,0,0-1.08,3.67V95.68s-.1,2.52,1.84,2.52a28,28,0,0,0,7,0s1.55-.29,1.55-2.62V77a4.57,4.57,0,0,0-1-3.7,4.56,4.56,0,0,1-.93-2.19l-1.54-11.35A.52.52,0,0,0,122.91,59.3Z" opacity="0.1" style="isolation:isolate"/><path id="Rectangle_1462" data-name="Rectangle 1462" d="M121.75,77.13h0a4.69,4.69,0,0,1,4.69,4.7v6.49a4.7,4.7,0,0,1-4.69,4.7h0a4.7,4.7,0,0,1-4.7-4.7V81.83A4.69,4.69,0,0,1,121.75,77.13Z" fill="#575da7"/><path id="Path_117" data-name="Path 117" d="M154.5,11.25a16.18,16.18,0,0,1-2.12,1,.51.51,0,0,0-.35.62L155,23.66a4.55,4.55,0,0,1,0,2.4,4.79,4.79,0,0,0,.41,3.81l7.28,17.43s.88,2.36,2.67,1.61a28,28,0,0,0,6.44-2.69s1.32-.87.42-3L165,26A4.59,4.59,0,0,0,162.67,23,4.49,4.49,0,0,1,161,21.33l-5.8-9.88A.51.51,0,0,0,154.5,11.25Z" fill="#403d56"/><path id="Rectangle_1463" data-name="Rectangle 1463" d="M160.29,28.15h0a4.7,4.7,0,0,1,6.15,2.53l2.5,6a4.7,4.7,0,0,1-2.53,6.14h0a4.69,4.69,0,0,1-6.14-2.52l-2.5-6A4.7,4.7,0,0,1,160.29,28.15Z" fill="#575da7"/><path id="Path_118" data-name="Path 118" d="M65,78.11c-3.42,1.41-4.78,5.81-4,9.42s3.22,6.63,5.58,9.5l6.61,8.06c1.83,2.24,3.83,4.58,6.61,5.36,4.08,1.14,8.15-1.45,11.67-3.8a176,176,0,0,1,33.53-17.46,11.23,11.23,0,0,0,3.28-1.69,6.05,6.05,0,0,0,1.42-7,7,7,0,0,0-6.21-3.85,8.38,8.38,0,0,0-6.6,3.39c-.74,1-1.28,2.1-2,3.1a19.39,19.39,0,0,1-7.35,5.44A187.5,187.5,0,0,1,87.2,97.5a5,5,0,0,1-3.91.29A4.84,4.84,0,0,1,81.6,96a44.68,44.68,0,0,1-4.81-10.26c-.87-2.71-1.57-5.66-3.67-7.59a7.3,7.3,0,0,0-10.28.93l-.27.35s-2.61,3.81-1,5.4S65,78.11,65,78.11Z" fill="#f7bdbe"/><path id="Path_119" data-name="Path 119" d="M243.83,64.92a9.81,9.81,0,0,1,.41,3.92c-.08,1.61-.49,3.5-2,4.12-1,.39-2.18.1-3,.69-1.06.71-1,2.25-.84,3.51a23.67,23.67,0,0,0,2.84,10A21,21,0,0,0,245,91.23,22.2,22.2,0,0,0,254.4,97a4,4,0,0,0,1.82.07,3.8,3.8,0,0,0,1.57-1c2.1-1.93,3.19-4.69,4.59-7.19a26.44,26.44,0,0,0,2.73-5.48,9.56,9.56,0,0,0-2.93-9.65c-.62-.53-1.31-1-1.91-1.53a9.82,9.82,0,0,1-2.87-5.57,24.34,24.34,0,0,1-.14-6.38,35,35,0,0,0-9.47.76,18.6,18.6,0,0,0-4.58,1.07C241.81,62.89,243.45,63.85,243.83,64.92Z" fill="#f7bdbe"/><path id="Path_120" data-name="Path 120" d="M243.83,64.92a9.81,9.81,0,0,1,.41,3.92c-.08,1.61-.49,3.5-2,4.12-1,.39-2.18.1-3,.69-1.06.71-1,2.25-.84,3.51a23.67,23.67,0,0,0,2.84,10A21,21,0,0,0,245,91.23,22.2,22.2,0,0,0,254.4,97a4,4,0,0,0,1.82.07,3.8,3.8,0,0,0,1.57-1c2.1-1.93,3.19-4.69,4.59-7.19a26.44,26.44,0,0,0,2.73-5.48,9.56,9.56,0,0,0-2.93-9.65c-.62-.53-1.31-1-1.91-1.53a9.82,9.82,0,0,1-2.87-5.57,24.34,24.34,0,0,1-.14-6.38,35,35,0,0,0-9.47.76,18.6,18.6,0,0,0-4.58,1.07C241.81,62.89,243.45,63.85,243.83,64.92Z" opacity="0.1" style="isolation:isolate"/><path id="Path_121" data-name="Path 121" d="M226.05,74.3c-5.18-1.77-7.65-8.71-13.07-9.49-.86-.12-1.73-.08-2.57-.27-3.12-.74-4.47-4.35-5.37-7.43a120.17,120.17,0,0,0-12.66-29.39c-2.38-3.82-6.14-7-7.86-11.16a8.64,8.64,0,0,0-1.31-2.8c-.71-.75-2.23-.86-2.61.1a2.11,2.11,0,0,0-.07,1.06l.37,4-6.49-.59a3.76,3.76,0,0,0-1.79.13,3.05,3.05,0,0,0-1.41,1.47c-2.2,4.12.14,9.52,4,12.13,4.52,3,11,3.5,14,8,1.8,2.7,1.83,6.18,3,9.2.56,1.44,1.38,2.77,2,4.17a84.59,84.59,0,0,1,2.84,8.35,73.33,73.33,0,0,0,5.48,11.36,29.59,29.59,0,0,0,5.61,7.92,27.38,27.38,0,0,0,5.35,3.5c4.61,2.52,10,4.94,14.93,3A32.87,32.87,0,0,0,226.05,74.3Z" fill="#f7bdbe"/><path id="Path_122" data-name="Path 122" d="M241.77,211.55c-.4,4.16-2.92,7.93-3.51,11.93-3.89-.61-7.72-1.39-11.42-2.28l-1.37-.32c2.1-5.74.27-12.17.83-18.28,0-.59.13-1.18.23-1.76,4.81-1.64,9.15-3.82,14.19-3.19l.3,3.07.6,6.11A24.8,24.8,0,0,1,241.77,211.55Z" fill="#f7bdbe"/><path id="Path_123" data-name="Path 123" d="M275,222c-1.89.57-3.83,1.07-5.86,1.48l-1,.2q-3.11.59-6.29.87c-.21-4.43-3.19-8.51-3.62-13.06a18.27,18.27,0,0,1,0-3.39c0-.45.08-.9.12-1.34l.9-9.17a14.21,14.21,0,0,1,2.16-.11c4.14.1,7.91,1.89,12,3.29a28.75,28.75,0,0,1,.33,5.86c-.17,5-1,10,.89,14.59Q274.82,221.57,275,222Z" fill="#f7bdbe"/><path id="Path_124" data-name="Path 124" d="M221.18,152c.55,4.35-1.67,8.51-2.63,12.78a44.75,44.75,0,0,0-.81,8.64l-.51,17.38a15.33,15.33,0,0,0,.44,5.18,10.4,10.4,0,0,0,7.76,6.4,29.18,29.18,0,0,0,10.46-.06,8.29,8.29,0,0,0,8.41-7.5l2.07-6.36c2.38,5.36,1.38,11.23,2.81,16.92a3.33,3.33,0,0,0,.63,1.44,3.57,3.57,0,0,0,2.5.84,71.62,71.62,0,0,0,18.73-.33,6.49,6.49,0,0,0,6.32-6.65,6.73,6.73,0,0,0-.12-1.1c-.09-6.89-2.58-13.53-3.13-20.41-.24-2.94-.13-5.9-.23-8.85a58.77,58.77,0,0,0-.62-6.63,6.89,6.89,0,0,0-5.64-6.41C253,151.38,236.94,151.44,221.18,152Z" fill="#ed6c71"/><circle id="Ellipse_14" data-name="Ellipse 14" cx="248.24" cy="52.76" r="13.71" fill="#f7bdbe"/><path id="Path_125" data-name="Path 125" d="M260.19,76.91a8.23,8.23,0,0,1-5,5,6.86,6.86,0,0,1-6.13-2.1,24.36,24.36,0,0,1-3.79-5.57,10.44,10.44,0,0,0-3.09-3.76,9.32,9.32,0,0,0-6.55-.84,29.64,29.64,0,0,1-6.7.86c-2.81-.19-5.68-1.59-8.34-.65a50,50,0,0,1,.45,12,5.23,5.23,0,0,1-.25,1.8,5.64,5.64,0,0,1-.93,1.49l-2.55,3.28a15.92,15.92,0,0,1,6.06,8,19.82,19.82,0,0,1,.35,5.8c-.06,5.71,1.18,11.4.79,17.09-.46,6.68-3.12,13-4.5,19.53a51.37,51.37,0,0,0-.65,17.09,160.7,160.7,0,0,0,44.12,8.3c2.67.15,5.54.17,7.74-1.36a8.38,8.38,0,0,0,3.19-5.66,25.1,25.1,0,0,0-.13-6.65q-1-9-2-18a42.7,42.7,0,0,1,.72-17.79l3.19-15.33a31.59,31.59,0,0,1,1.82-6.4c.74-1.66,1.76-3.19,2.57-4.8a20.9,20.9,0,0,0,2-6.15,4.12,4.12,0,0,0,0-1.88,4.35,4.35,0,0,0-2.36-2.18,68.28,68.28,0,0,0-18.86-6.62A27.57,27.57,0,0,1,260.19,76.91Z" fill="#e3e8f4"/><path id="Path_126" data-name="Path 126" d="M258.87,67.73c1.59-3,4.57-5.19,6.3-8.18a12.07,12.07,0,0,0,.39-11.16,41.32,41.32,0,0,1-1.91-3.68c-.53-1.48-.58-3.11-1.2-4.56a8.43,8.43,0,0,0-4.66-4.24,24.79,24.79,0,0,0-6.29-1.4l-7.25-1a8,8,0,0,0-3.15,0A2.68,2.68,0,0,0,239,35.7c-.1,1.25,1,2.42.75,3.65-.09.43-.35.87-.2,1.29a1.33,1.33,0,0,0,.64.64A31.65,31.65,0,0,0,245.86,43c1.86.62,3.73,2.19,3.54,4.14-.1,1-.77,2.14-.32,3.08s1.59,1,2.51,1.31a6.73,6.73,0,0,1,4.64,7.17c-.13,1-.47,1.87-.54,2.83-.24,3.36.29,4.32,3,6.28Z" fill="#403d56"/><path id="Path_127" data-name="Path 127" d="M277.49,82.26a4.72,4.72,0,0,1-.34,1.86c-1,2.12-4,2-6.06,3.19-2.51,1.5-3.07,4.84-3.3,7.76A34.81,34.81,0,0,0,268,105a13.26,13.26,0,0,0,5,8.29,12.77,12.77,0,0,0,11.57,1,25.84,25.84,0,0,0,9.66-7.07,30.58,30.58,0,0,0,6.31-9.49,3,3,0,0,0,.27-2c-.3-1-1.34-1.39-2.19-1.91a9.71,9.71,0,0,1-4-5.49,24,24,0,0,1-.81-6.85c0-2.41,0-5-1.56-6.88a8.3,8.3,0,0,0-6.6-2.35c-2,0-7.45.18-8.81,1.91C275.8,75.57,277.56,80.21,277.49,82.26Z" fill="#be6f72"/><path id="Path_128" data-name="Path 128" d="M277.49,82.26a4.72,4.72,0,0,1-.34,1.86c-1,2.12-4,2-6.06,3.19-2.51,1.5-3.07,4.84-3.3,7.76A34.81,34.81,0,0,0,268,105a13.26,13.26,0,0,0,5,8.29,12.77,12.77,0,0,0,11.57,1,25.84,25.84,0,0,0,9.66-7.07,30.58,30.58,0,0,0,6.31-9.49,3,3,0,0,0,.27-2c-.3-1-1.34-1.39-2.19-1.91a9.71,9.71,0,0,1-4-5.49,24,24,0,0,1-.81-6.85c0-2.41,0-5-1.56-6.88a8.3,8.3,0,0,0-6.6-2.35c-2,0-7.45.18-8.81,1.91C275.8,75.57,277.56,80.21,277.49,82.26Z" opacity="0.1" style="isolation:isolate"/><path id="Path_129" data-name="Path 129" d="M260.49,167.77a2.05,2.05,0,0,0,1.73,1.81c10.47,3.07,21.65,1.84,32.48.59a62,62,0,0,1-3.39-13.81c-.34-3.92.05-8-1.34-11.64-.4-1.08-24.19,3.91-26.54,4.31-1.2.21-2.58.14-3.43,1.09-1,1.16-1.11,3.91-1.22,5.34A35,35,0,0,0,260.49,167.77Z" fill="#be6f72"/><path id="Path_130" data-name="Path 130" d="M284.31,218.38c-1.91.88-3.89,1.71-5.93,2.44-1.11.4-2.23.78-3.39,1.13-1.88.57-3.82,1.07-5.85,1.48q-1.72-4.38-3.46-8.78c-.85-2.15-1.71-4.32-2.42-6.52a40.24,40.24,0,0,1-1.21-4.59,32.58,32.58,0,0,1,.79-15.87c4.42.84,8.74,1.38,13.09,2,2.32.33,4.65.69,7,1.14.18,1.54.35,3.07.5,4.61.23,2.37.42,4.75.57,7.12Q284.51,210.46,284.31,218.38Z" fill="#be6f72"/><path id="Path_131" data-name="Path 131" d="M284.31,218.38c-1.91.88-3.89,1.71-5.93,2.44-1.11.4-2.23.78-3.39,1.13-1.88.57-3.82,1.07-5.85,1.48q-1.72-4.38-3.46-8.78c-.85-2.15-1.71-4.32-2.42-6.52a40.24,40.24,0,0,1-1.21-4.59,32.58,32.58,0,0,1,.79-15.87c4.42.84,8.74,1.38,13.09,2,2.32.33,4.65.69,7,1.14.18,1.54.35,3.07.5,4.61.23,2.37.42,4.75.57,7.12Q284.51,210.46,284.31,218.38Z" opacity="0.1" style="isolation:isolate"/><path id="Path_132" data-name="Path 132" d="M308.83,204.56a21,21,0,0,1-1,5.51c0,.13-.07.26-.1.38a5.23,5.23,0,0,1-2.82-2.11,5.9,5.9,0,0,1-.75-1.77c-1.45,1-2.9,2-4.37,2.92a120.11,120.11,0,0,1-15.5,8.88c-1.91.89-3.89,1.72-5.93,2.45-.43-1.49-.83-3-1.21-4.49a39.93,39.93,0,0,1-1-4.72,23.83,23.83,0,0,1,1.06-10.73h0l.14-.41a23,23,0,0,1,2.09-4.4c.79-1.28,2.36-1.06,4-.64.73.19,1.47.41,2.13.55,4.17.88,8.49,0,12.75.21a15.51,15.51,0,0,1,5.86,1.49,8.08,8.08,0,0,1,4.35,4.78,8.24,8.24,0,0,1,.21,1,8.47,8.47,0,0,1,.08,1.13Z" fill="#be6f72"/><path id="Path_133" data-name="Path 133" d="M232.13,57.73a148.07,148.07,0,0,0-21.72-16.84,59.16,59.16,0,0,1-5.74-4.09c-1.91-1.59-3.59-3.46-5.61-4.9a9.38,9.38,0,0,0-7-1.95,5.11,5.11,0,0,0-4.26,5.25c.33,2.15,2.26,3.62,4,4.86a86.85,86.85,0,0,0,10.45,6.52,32.15,32.15,0,0,1,3.71,2,27.79,27.79,0,0,1,5.69,6A83,83,0,0,0,235.3,74.61c.11.07,3.88-8.07,3.72-9.13C238.67,63.05,233.86,59.41,232.13,57.73Z" fill="#be6f72"/><path id="Path_134" data-name="Path 134" d="M288.44,160.76c-5.08.32-10,2-14.93,3.13s-10.37,1.51-15-.64l2.81,19.16a9.06,9.06,0,0,1,.09,3.2,12.29,12.29,0,0,0-.73,3c.08,1.62,1.6,2.76,3,3.51a27.06,27.06,0,0,0,13.52,3.11c-.35,1.41-.78,2.79-1.13,4.2,2.34,2.51,6.17,2.68,9.52,3.48,2.55.6,4.94,1.65,7.44,2.38a31.55,31.55,0,0,0,9.31,1.31,9.74,9.74,0,0,0,6-1.65c2-1.63,2.66-4.41,3.09-7a15.85,15.85,0,0,0,.33-4.34,17.39,17.39,0,0,0-1.45-4.78L306,178.22c-.79-1.91-1.59-3.85-2.55-5.7C300.35,166.54,295.16,160.34,288.44,160.76Z" fill="#403d56"/><path id="Path_135" data-name="Path 135" d="M292.33,94.56a4.78,4.78,0,0,1,5-3,9.26,9.26,0,0,1,3.51,1.56l6.09,3.8a27.54,27.54,0,0,1,2.9,2c4.2,3.49,5.82,9.21,6.28,14.64s0,11,1.08,16.31c-2.57,2.13-5.42,3.94-8,6.06a20.2,20.2,0,0,0-3.72,3.67c-.82,1.12-1.39,2.41-2.24,3.5a8.41,8.41,0,0,1-5.59,3.1,6.08,6.08,0,0,1,2.56,4c.37,1.56.47,3.19.89,4.75.58,2.12,1.77,4.08,2.16,6.24a40.5,40.5,0,0,1,.25,4.54c.5,7.86,6.66,14.72,6.26,22.58a34.55,34.55,0,0,1-8.18-4.3c-1.14-.82-2.23-1.7-3.31-2.57l-8.12-6.59a67.67,67.67,0,0,1-11.08-10.45c-2-2.51-3.58-5.29-5.56-7.8a16.9,16.9,0,0,0-7.43-5.83c-.44.66-1.23,1.13-1.67,1.79a1.16,1.16,0,0,0-.18.35,1.49,1.49,0,0,0,.1.88,18.1,18.1,0,0,1,.64,3.95l.2,2.39a8.8,8.8,0,0,1,0,1.92,5.05,5.05,0,0,1-4.25,4,1.56,1.56,0,0,1-2-1.4c-.81-2.72.43-5.6.53-8.43a19.49,19.49,0,0,0-.07-2.16l-.19-2.83c-1.85-.38-2.92-2.37-3.41-4.2-1.33-4.93-2.66-10-1.9-15.08a12.75,12.75,0,0,0,.33-4.08c-.33-1.81-1.62-3.27-2.3-5-2.24-5.54,2.5-11.57,2.06-17.53-.18-2.5-1.77-4.68-2.73-7a19.26,19.26,0,0,0-1.91-3.86,21.15,21.15,0,0,0-3.57-3.63,137.54,137.54,0,0,1-11.21-11,8.28,8.28,0,0,1-4.83-2.22,4.39,4.39,0,0,1-1.56-3,2.34,2.34,0,0,1,2-2.43,7.91,7.91,0,0,1,2,.44,4.88,4.88,0,0,0,5.06-3,13.9,13.9,0,0,0,.91-6.22,6,6,0,0,1,5.52,1.93,34.81,34.81,0,0,1,3.48,5.27,8.28,8.28,0,0,0,1.73,2.09c1.54,1.22,3.75,1.45,5.09,2.87.68.73,1,1.69,1.67,2.47,1.75,2.19,4.95,2.46,7.34,3.9s4,4.07,6.69,4.93c1,.32,2,.36,2.95.71a6.59,6.59,0,0,1,3.83,5.45,20,20,0,0,1-.74,6.92l-1.23,5.33a3.62,3.62,0,0,0,.4,3.44,3.55,3.55,0,0,0,1.41.71c2.23.73,4.72,1.44,6.81.41a7.83,7.83,0,0,0,2.48-2.17A41.05,41.05,0,0,0,292.33,94.56Z" fill="#575da7"/><path id="Path_136" data-name="Path 136" d="M317.49,203a9.46,9.46,0,0,1-4.68,7.12,6.63,6.63,0,0,1-5.06.35,5.23,5.23,0,0,1-2.82-2.11,5.9,5.9,0,0,1-.75-1.77l0-.1a13.6,13.6,0,0,1-.29-3.43,45.46,45.46,0,0,1,.32-5.35,28.94,28.94,0,0,1,.88-4.43c.6-2.07,1.45-4.06,2.23-6.06.41-1,.81-2.1,1.13-3.19h0c.19-.63.36-1.29.49-1.95l0-.24c0-.13.05-.27.07-.4a19.2,19.2,0,0,1,1.23-5.34c1.92-3.86,5.64-2.87,6.21.68a5.81,5.81,0,0,1,.07.83c.09,4.5-1.7,8.9-.88,13.41a30.08,30.08,0,0,0,.87,3.26c.28,1,.54,2,.74,3A16.91,16.91,0,0,1,317.49,203Z" fill="#be6f72"/><path id="Path_137" data-name="Path 137" d="M319.25,153a35,35,0,0,0,.37,5.51c.86,4.27,4.14,8.06,3.78,12.39a3.38,3.38,0,0,1-1.41,2.72c-.92.52-2.45.49-2.76,1.54-.08.29,0,.61-.13.9a1.59,1.59,0,0,1-1.6.86,18,18,0,0,0-1.93-.17c-2.32.2-3.16,3.29-5.22,4.35a3.92,3.92,0,0,1-4.33-.74,5.4,5.4,0,0,1-1.56-4.26,32,32,0,0,1,.64-3.47,24,24,0,0,0,0-6.28,37.73,37.73,0,0,0-1.57-9.07c-.47-1.37-1.11-2.68-1.52-4.08a24,24,0,0,1-.78-6.08c-.12-4.32.17-8.93,2.75-12.39,1.94-2.61,4.71-4.72,6.9-7.13,1.37-1.5,1.77-2,3.28-.7a6.89,6.89,0,0,1,2.69,3.92c.38,3.64,0,7.23.68,10.94A85,85,0,0,1,319.25,153Z" fill="#575da7"/><circle id="Ellipse_15" data-name="Ellipse 15" cx="286.18" cy="66.47" r="16.26" fill="#be6f72"/><path id="Path_138" data-name="Path 138" d="M301.07,97.58a1.8,1.8,0,0,1,2.34-1,2,2,0,0,1,.36.18l4.28,1.8a13.93,13.93,0,0,0,2-6.3,33.06,33.06,0,0,1,.25-4.1c.39-2,1.57-3.79,1.84-5.8a17.85,17.85,0,0,0-.41-4.89c-.73-5,0-10.13-.36-15.18s-2.45-10.45-6.95-12.77c-1.3-.57-2.62-1.08-4-1.52-3-1.13-5.61-2.94-8.53-4.15a11.26,11.26,0,0,0-9.18-.37c-2.83,1.4-4.48,5.34-2.64,7.91a9.78,9.78,0,0,0,2.34,2,8.42,8.42,0,0,1,3.88,4.84C287,62,283.12,64.93,282,68.6a8.86,8.86,0,0,0-.1,4.4c.47,2.17,1.63,4.23,1.59,6.45,0,2.45-1.49,4.65-1.76,7.08-.1.89,0,1.79-.15,2.67a14.28,14.28,0,0,1-1,3.39,101.27,101.27,0,0,1-8.93,18.56,24.57,24.57,0,0,0,11.68-2.73,19.38,19.38,0,0,1-2.92,6.87,22.14,22.14,0,0,0,9.14-3.2,29.79,29.79,0,0,1-2.9,6.89c.11-.18,2.12-.64,2.48-.85a4.3,4.3,0,0,0,1.76-1.87c1.08-1.94,1.76-4.28,2.77-6.29a91.92,91.92,0,0,1,7.43-12.39Z" fill="#403d56"/><path id="Path_139" data-name="Path 139" d="M177.75,0a15,15,0,0,1-2.32.06.5.5,0,0,0-.56.44l-1.48,11.12a4.64,4.64,0,0,1-1,2.2,4.79,4.79,0,0,0-1.08,3.67V36.38s-.1,2.52,1.84,2.52a28,28,0,0,0,7,0s1.55-.3,1.55-2.62V17.68a4.56,4.56,0,0,0-1-3.7,4.56,4.56,0,0,1-.93-2.19L178.29.43A.51.51,0,0,0,177.75,0Z" fill="#403d56"/><path id="Rectangle_1464" data-name="Rectangle 1464" d="M176.59,17.83h0a4.69,4.69,0,0,1,4.69,4.7V29a4.69,4.69,0,0,1-4.69,4.69h0a4.69,4.69,0,0,1-4.7-4.69V22.53A4.69,4.69,0,0,1,176.59,17.83Z" fill="#575da7"/><path id="Path_140" data-name="Path 140" d="M199.75,16.26a15.09,15.09,0,0,1-2.33.06.5.5,0,0,0-.55.44l-1.49,11.12a4.53,4.53,0,0,1-.95,2.2,4.75,4.75,0,0,0-1.08,3.67V52.64s-.1,2.52,1.84,2.52a28,28,0,0,0,7,0s1.55-.3,1.55-2.62V33.94a4.53,4.53,0,0,0-1-3.7,4.64,4.64,0,0,1-.92-2.19L200.29,16.7A.51.51,0,0,0,199.75,16.26Z" fill="#403d56"/><path id="Rectangle_1465" data-name="Rectangle 1465" d="M198.58,34.09h0a4.69,4.69,0,0,1,4.7,4.7v6.49a4.69,4.69,0,0,1-4.7,4.69h0a4.69,4.69,0,0,1-4.69-4.69V38.79A4.69,4.69,0,0,1,198.58,34.09Z" fill="#575da7"/><g id="Group_5" data-name="Group 5" opacity="0.2"><path id="Path_141" data-name="Path 141" d="M175,206.77a5.8,5.8,0,0,1-.12,1q-3.33-.53-6.69-.95v-.28a5.37,5.37,0,0,1,.79-2.7,3,3,0,0,1,4-1.35A2.93,2.93,0,0,1,174.4,204,5.39,5.39,0,0,1,175,206.77Z" fill="#403d56"/><ellipse id="Ellipse_16" data-name="Ellipse 16" cx="171.79" cy="201.22" rx="4.47" ry="3.41" transform="translate(-34.75 366.57) rotate(-88.19)" fill="#403d56"/><ellipse id="Ellipse_17" data-name="Ellipse 17" cx="171.96" cy="195.76" rx="4.47" ry="3.41" transform="translate(-29.13 361.46) rotate(-88.19)" fill="#403d56"/><ellipse id="Ellipse_18" data-name="Ellipse 18" cx="172.14" cy="190.3" rx="4.47" ry="3.41" transform="translate(-23.51 356.34) rotate(-88.19)" fill="#403d56"/><ellipse id="Ellipse_19" data-name="Ellipse 19" cx="172.31" cy="184.84" rx="4.47" ry="3.41" transform="translate(-17.88 351.23) rotate(-88.19)" fill="#403d56"/><path id="Path_142" data-name="Path 142" d="M160.71,147.07a15.1,15.1,0,0,1-1.22-1.91l9-1.19-9.69-.23a16.35,16.35,0,0,1,.1-13l12.79,7.16L160,128.75a16.35,16.35,0,1,1,27.83,17.17,17,17,0,0,1-1.42,2,16.51,16.51,0,0,1,1.77,3l-11.83,5.68,12.54-3.77a16.34,16.34,0,0,1-3.13,15.27,16.35,16.35,0,1,1-25.68-.81,16.35,16.35,0,0,1,.64-20.22Z" fill="#575da7"/><path id="Path_143" data-name="Path 143" d="M189.57,158.1a16.21,16.21,0,0,1-3.83,10,16.35,16.35,0,1,1-25.68-.81C158,164.43,189.63,156.26,189.57,158.1Z" opacity="0.1" style="isolation:isolate"/></g></svg>