<?xml version="1.0" encoding="utf-8"?>
<!-- Generator: Adobe Illustrator 24.2.3, SVG Export Plug-In . SVG Version: 6.00 Build 0)  -->
<svg version="1.1" id="Layer_1" xmlns="http://www.w3.org/2000/svg" xmlns:xlink="http://www.w3.org/1999/xlink" x="0px" y="0px"
	 viewBox="0 0 361.9 230.5" style="enable-background:new 0 0 361.9 230.5;" xml:space="preserve">
<style type="text/css">
	.st0{opacity:0.1;fill:#575DA7;enable-background:new    ;}
	.st1{fill:#BE6F72;}
	.st2{opacity:0.1;enable-background:new    ;}
	.st3{fill:#403D56;}
	.st4{fill:#F7BDBE;}
	.st5{fill:#E3E8F4;}
	.st6{fill:#ED6C71;}
	.st7{fill:#575DA7;}
	.st8{opacity:0.2;}
</style>
<path id="Path_95" class="st0" d="M359.6,154.1c-3.6,8.7-11.2,16.6-19.4,24.1c-7.2,6.6-14.8,12.9-23,19c-2.3,1.7-4.6,3.4-6.9,5
	l-1.6,1.1c-1.4,1-2.9,2-4.4,3l-0.2,0.1c-1.4,1-2.9,1.9-4.4,2.9c-4.9,3.3-10.1,6.3-15.5,8.9c-1.9,0.9-3.9,1.7-5.9,2.4
	c-1.1,0.4-2.2,0.8-3.4,1.1c-1.9,0.6-3.8,1.1-5.9,1.5l-1,0.2c-2.1,0.4-4.2,0.7-6.3,0.9c-7.9,0.6-15.8,0.3-23.6-1
	c-3.9-0.6-7.7-1.4-11.4-2.3l-1.4-0.3c-12.6-3.2-24.5-7.4-37.2-10.4c-4.4-1-8.8-1.9-13.4-2.6c-2.2-0.3-4.5-0.7-6.7-1
	c-5.3-0.6-10.6-1.1-16-1.3c-7.2-0.4-14.5-0.1-21.6,1.1c-0.9,0.2-1.8,0.4-2.7,0.6c-1.1,0.3-2.3,0.6-3.3,0.9c-2.9,1-5.8,2.1-8.6,3.5
	l-1.6,0.8l0,0c-1.7,0.9-3.3,1.7-5,2.6c-3,1.6-6.2,2.9-9.5,4c-1.8,0.6-3.6,1-5.4,1.4c-5,0.9-10.1,1.4-15.3,1.4c-2.5,0-5-0.1-7.5-0.2
	h-0.1c-0.8,0-1.7-0.1-2.6-0.2c-3.9-0.3-7.7-0.7-11.5-1.2c-13-1.9-25.4-5.5-35.4-11.1C8.5,201.7,0,190.5,1.2,179.4
	c0.9-8,6.7-15.5,12.1-22.8C23.5,143,33,129.1,38,114.4c4-11.9,5.2-24.5,14.6-35.2c3.3-3.6,7.1-6.8,11.3-9.3c3.3-2,6.8-3.8,10.4-5.3
	c4.1-1.7,8.3-3,12.6-4.1c3.7-0.9,7.5-1.6,11.3-2.1c2.1-0.3,4.1-0.5,6.2-0.6c1.6-0.1,3.2-0.2,4.9-0.2h0.3c1,0,2,0,3,0
	c7.3,0.1,14.5,0.8,21.7,2c4.5,0.8,8.9,1.7,13.3,2.7c2.6,0.6,5.2,1.2,7.7,1.9l2.3,0.6c18.1,4.9,34.1,11.6,51.6,17.1l0.3,0.1l0,0
	c3.6,1.1,7.2,2,10.9,2.7c2.7,0.6,5.5,1,8.3,1.4c4.3,0.6,8.7,1.1,13.1,1.6l1,0.1c6.5,0.6,13.1,1.1,19.5,1.7c2.3,0.2,4.5,0.4,6.7,0.6
	c1.4,0.1,2.8,0.3,4.2,0.4l3,0.3l3.1,0.4c0.7,0.1,1.3,0.2,2,0.3c4,0.5,8,1.1,12,1.8c2.4,0.4,4.8,0.9,7.2,1.3c1.7,0.4,3.4,0.7,5.1,1.1
	c1.3,0.3,2.5,0.6,3.7,0.9c9.5,2.3,18.7,5.7,27.3,10.3C357.2,118.5,366.6,137.4,359.6,154.1z"/>
<circle id="Ellipse_6" class="st0" cx="166.9" cy="318" r="4.2"/>
<circle id="Ellipse_7" class="st0" cx="253.3" cy="308.8" r="4.2"/>
<circle id="Ellipse_8" class="st0" cx="304.6" cy="318.3" r="4.2"/>
<circle id="Ellipse_9" class="st0" cx="11.6" cy="36.2" r="11.6"/>
<circle id="Ellipse_10" class="st0" cx="22.6" cy="93.2" r="11.6"/>
<circle id="Ellipse_11" class="st0" cx="332.8" cy="72.2" r="11.6"/>
<path id="Path_96" class="st1" d="M113,73.9c0.1,1,0,1.9-0.2,2.9c-0.6,3-3.3,5-5.9,6.5s-5.5,3-7,5.6c-1.7,3.3-1.4,7.4,0.9,10.3
	c2.3,2.9,5.6,4.8,9.3,5.4c6.7,1.3,13.5-0.5,18.6-5.1c5-4.6,7.3-11.5,6.2-18.2c-2.7,0.4-5-2-5.9-4.5c-0.6-2.6-0.9-5.3-1-8
	c0-0.4-0.2-0.9-0.4-1.3c-0.4-0.5-1-0.8-1.7-0.9c-3.1-0.8-8.2-2.7-11.4-2C111.5,65.4,112.9,71.4,113,73.9z"/>
<path id="Path_97" class="st2" d="M113,73.9c0.1,1,0,1.9-0.2,2.9c-0.6,3-3.3,5-5.9,6.5s-5.5,3-7,5.6c-1.7,3.3-1.4,7.4,0.9,10.3
	c2.3,2.9,5.6,4.8,9.3,5.4c6.7,1.3,13.5-0.5,18.6-5.1c5-4.6,7.3-11.5,6.2-18.2c-2.7,0.4-5-2-5.9-4.5c-0.6-2.6-0.9-5.3-1-8
	c0-0.4-0.2-0.9-0.4-1.3c-0.4-0.5-1-0.8-1.7-0.9c-3.1-0.8-8.2-2.7-11.4-2C111.5,65.4,112.9,71.4,113,73.9z"/>
<path id="Path_98" class="st1" d="M109.3,215c-3,1.6-6.2,2.9-9.5,4c-1.8,0.6-3.6,1-5.4,1.4c-0.1-2.5,0-4.9,0.4-7.3
	c0.3-1.4,0.6-2.8,0.7-4.2c0.1-2-0.3-4.1-1.3-5.9c3.5-0.7,7-1,10.5-1h0.2c0.4,0,0.8,0.1,1.3,0.2c0.5,0.3,1,0.7,1.3,1.2
	c0.2,0.3,0.3,0.5,0.5,0.8c1,1.8,1.5,3.8,1.5,5.8C109.5,211.7,109.4,213.3,109.3,215z"/>
<path id="Path_99" class="st1" d="M127.8,207.2c-1.1,0.3-2.2,0.6-3.3,0.9c-2.9,1-5.8,2.1-8.6,3.5c-0.2-0.9-0.3-1.8-0.3-2.6
	c3.3-2.3,7.4-3.1,11.3-2.3c0.3,0,0.5,0.1,0.7,0.3C127.8,207,127.8,207.1,127.8,207.2z"/>
<path id="Path_100" class="st3" d="M133.3,191.1c-0.2,2.1-0.6,4.2-1.3,6.1c-0.8,2.1-2.1,4.1-1.9,6.4c0.1,1,0.4,2,0.5,3
	c-0.9,0.2-1.8,0.4-2.7,0.6c-1.1,0.3-2.3,0.6-3.3,0.9c-2.9,0.9-5.8,2.1-8.6,3.5l-1.6,0.8l0,0c-0.2,0-0.4-0.1-0.7-0.1
	c-1.6-0.2-3.1-1-4.2-2.3c-0.2-0.3-0.4-0.6-0.5-1c-0.5-1.6,0-3.5-1.1-4.7l0,0l0,0c-0.6,0.5-1.2,1-1.9,1.4l0,0c-3.2,1.8-7,2.2-10.5,1
	c-0.7-0.2-1.4-0.5-2-0.9c-1.6-0.7-2.6-2.2-2.8-3.9c0.1-0.9,0.6-1.8,0.4-2.8c-0.2-0.6-0.5-1.2-0.9-1.8c-2.1-3.8,0.4-8.7-0.9-12.9
	l-0.1-0.3c-0.1-0.3-0.2-0.5-0.3-0.8c-0.3-0.6-0.6-1.2-0.8-1.8c-0.2-0.5-0.4-1.1-0.5-1.6c-0.3-1.6-0.4-3.2-0.3-4.9
	c0.1-4.3,0.7-8.6,1.9-12.8c0.2-0.7,0.4-1.8,0.7-2.9l0,0c0.3-1.2,0.6-2.3,1.1-3.4c0.4-1.3,1.4-2.4,2.7-2.9c1.8-0.4,4.5,0.5,6.3,0.7
	l7.2,0.9l14.3,1.7c2.5,0.1,4.9,0.8,7.1,2c0.1,0.1,0.3,0.2,0.4,0.3c0.5,0.4,1,0.9,1.4,1.5c0.1,0.2,0.3,0.4,0.4,0.6
	c0.5,0.7,0.9,1.5,1.2,2.3c1.8,4.3,1.8,9,1.8,13.6C133.9,181.5,133.8,186.3,133.3,191.1z"/>
<path id="Path_101" class="st2" d="M105.9,205.8c-0.4-1.7-1.3-4.1-1.5-4.7c-0.5-2.2-0.8-4.4-1-6.6c-0.3-4-1-9.6,0.4-13.4
	c1.4,1,2.5,2.4,3.1,4.1c2.2,4.9-0.3,10.9,1.8,15.9c0.2,0.3,0.3,0.7,0.3,1c0,0.4-0.2,0.8-0.4,1.2l-0.7,1.2L105.9,205.8z"/>
<path id="Path_102" class="st1" d="M151.8,54.2c2.4-3.8,5.6-7.6,5.4-12.1c-0.2-1.6-0.5-3.2-1-4.7c-1.1-4.5-1.2-9.2-0.2-13.8
	c3.9-0.6,8,0.3,11.3,2.5c1.1,0.7,2,1.6,2.5,2.8c0.3,1.1,0.4,2.3,0.3,3.5c-0.2,2.7-0.4,5.5-2.1,7.7c-0.5,0.7-1.1,1.2-1.6,1.9
	c-0.7,1-1.2,2.1-1.6,3.3l-5.4,14.7c-2.7,7.4-5.7,15.2-11.7,20.3c-0.1,0.1-4.5-6-4.8-6.6c-1.4-2.5-0.8-3.6,0.9-5.7
	C147.1,63.8,149,58.7,151.8,54.2z"/>
<path id="Path_103" class="st4" d="M89.7,179.8c0,1.1-0.1,2.2-0.3,3.3c-0.1,0.4-0.1,0.8-0.2,1.2c-1.1,5.7-3.8,11.1-5.7,16.6
	c-2.3,6.8-3.8,13.8-4.5,20.9c-2.5,0-5-0.1-7.5-0.2h-0.1c-0.8,0-1.7-0.1-2.6-0.2c0.8-6.8-0.6-13.9,0.7-20.6c0.6-2.7,1.5-5.4,2.1-8.1
	c0.2-0.8,0.3-1.6,0.4-2.4c0-0.8,0.2-1.5,0.5-2.3c0-0.1,0.1-0.1,0.1-0.2c0.3-0.5,0.7-0.9,1.1-1.3c3.9-3.4,8.6-5.7,13.7-6.6
	C88.3,180,89,179.9,89.7,179.8z"/>
<path id="Path_104" class="st2" d="M89.7,179.8c0,1.1-0.1,2.2-0.3,3.3c-0.1,0.4-0.1,0.8-0.2,1.2c-1.1,5.7-3.8,11.1-5.7,16.6
	c-2.3,6.8-3.8,13.8-4.5,20.9c-2.5,0-5-0.1-7.5-0.2h-0.1c-0.8,0-1.7-0.1-2.6-0.2c0.8-6.8-0.6-13.9,0.7-20.6c0.6-2.7,1.5-5.4,2.1-8.1
	c0.2-0.8,0.3-1.6,0.4-2.4c0-0.8,0.2-1.5,0.5-2.3c0-0.1,0.1-0.1,0.1-0.2c0.3-0.5,0.7-0.9,1.1-1.3c3.9-3.4,8.6-5.7,13.7-6.6
	C88.3,180,89,179.9,89.7,179.8z"/>
<path id="Path_105" class="st4" d="M73.5,194.4c0,1.8-0.2,3.5-0.4,5.3c-0.8,7.2-1,14.7-1.6,22l-2.5-0.2c-3.9-0.3-7.7-0.7-11.5-1.2
	c0.3-1.6,0.6-3.3,0.9-4.9c0.4-2,0.6-4,0.6-6.1c-0.2-1.9-0.5-3.8-1-5.7c-0.6-4.1-1.6-8.2-2.8-12.2c-0.8-2.1-2-4.1-3.5-5.7
	c6-2.4,11.7-2.5,18.1-2.2c0.5,0,0.9,0.1,1.3,0.3c0.3,0.3,0.5,0.6,0.7,1c1,2.3,1.6,4.8,1.8,7.3C73.6,192.7,73.6,193.6,73.5,194.4z"/>
<circle id="Ellipse_12" class="st1" cx="121.7" cy="59.8" r="12.4"/>
<path id="Path_106" class="st5" d="M124.3,88.8c1.6-2.7,3-6.1,6.1-6.9c1.8-0.3,3.6,0,5.2,0.7c0.5,0.1,0.9,0.4,1.3,0.7
	c0.2,0.4,0.4,0.9,0.4,1.3c0.5,5.6,0.5,11.3-0.1,16.9c-0.4,4-1.1,7.9-1.2,11.9c-0.2,5.5,0.8,11.1,0.4,16.6c-0.3,4.2-1,8.3-2.1,12.4
	l-3.8,17.1c0,1-0.8,1.9-1.7,2.1c-11.2,4-23.6,3-34-2.7c-1.4-0.7-2.7-1.7-3.7-2.9c-1.2-1.9-1.5-4.3-1-6.5c0.4-2.2,1.3-4.3,1.9-6.4
	c0.8-3.4,1.3-6.9,1.4-10.3c0.4-4.6,0.4-9.1,0.1-13.7c-0.3-3.1-1-6.2-1.6-9.3c-0.8-4.7-1.2-9.4-1.3-14.2c-0.1-2.8,0-6,2-8
	c1-0.9,2.2-1.7,3.5-2.1c2.1-0.9,4.5-1.1,6.8-0.5c2.3,0.7,3.8,2.9,3.5,5.3c-0.2,1.1-0.9,2-1.1,3c-0.1,1.4,0.5,2.9,1.6,3.8
	C112.6,102.5,121.4,93.8,124.3,88.8z"/>
<path id="Path_107" class="st3" d="M124.7,76.1c1.7-0.6,3.6-0.8,5.4-0.3c1.1,0.5,2.3,0.6,3.5,0.2c0.4-0.2,0.7-0.5,1.1-0.7
	c1.1-0.5,2.4,0.1,3.4-0.6c0.5-0.5,0.9-1.2,1-1.9c1-3.4,2.9-6.3,5.6-8.5c-0.3,2.4-0.6,5.2,1,7.1c0.8,0.8,1.7,1.4,2.8,1.8
	c1.5,0.7,3.1,0.9,4.7,0.7c1.6-0.3,3-1.5,3.3-3.1c-0.1,2.4-2.3,4.1-3,6.4c-0.2,0.9-0.2,1.8-0.4,2.7c-0.7,2.2-1.9,4.2-3.5,5.9
	c-4.5,5.9-7.4,12.8-8.3,20.2c-0.1,0.9-0.3,1.7-0.6,2.6c-0.3,0.6-0.6,1.2-1,1.8c-2.3,4-1.6,8.9-0.8,13.4c1.1,7,2.6,14,4.5,20.9
	c0.2,1.2,0.8,2.3,1.6,3.3c-0.3,2.8-3.1,4.1-5.6,5.3c-2.5,1.2-4.8,2.7-6.8,4.6c-0.8,0.6-1.4,1.4-1.7,2.4c-0.3,0.9-0.1,1.9-0.4,2.8
	s-1.6,1.5-2.2,0.8c-0.7-2.6,0.5-5.4,0.4-8.1c0-1.8-0.6-3.6-0.7-5.4c0-2.1,0.4-4.1,1.2-6.1c1.8-5.5,4-10.9,4.6-16.7
	c0.6-5.8-0.6-12-4.6-16.1c-4.8-4.9-7.5-11.5-12.7-16c-0.8-0.7-1.8-1.6-1.6-2.7c0.1-0.5,0.3-0.9,0.6-1.3c1.8-2.5,4.1-4.6,6-7
	C123.7,82.1,124.8,79.2,124.7,76.1z"/>
<path id="Path_108" class="st3" d="M107.7,81.3c-0.3,0.4-0.6,0.7-0.9,1c-0.4,0.3-0.9,0.4-1.4,0.4c-1.9,0.3-3.8,0.5-5.7,0.5
	c-1.6-0.1-3.2,0-4.8,0.3c-2.1,0.7-3.9,2.3-4.9,4.3c-1,2-1.7,4.1-2,6.3c-0.9,4.8-1.4,9.7-1.4,14.6c2.6-2.1,5-4.5,7-7.2
	c1.3-2.2,3.1-4.2,5.1-5.8c1-0.6,2.1-1,3.1-1.7c2-1.4,3.7-3.3,5-5.4c1-1.5,4-4.4,4.3-6.2c0-1-0.8-1.8-1.8-1.9
	C108.6,80.5,108.1,80.8,107.7,81.3z"/>
<path id="Path_109" class="st3" d="M118.8,51.3c0.4,0.2,0.8,0.5,1.1,0.8c2.2,1.5,5.1,1.2,7.7,0.9c0.8,0,1.6-0.3,2.3-0.6
	c1.1-0.8,1.7-2.1,1.5-3.4c-0.2-1.3-0.7-2.5-1.6-3.5c-2.1-2.7-5.3-4.4-8.7-4.8c-0.9-0.1-1.8,0-2.6,0.3c-1,0.6-1.9,1.2-2.8,1.9
	c-2.8,1.7-7.1,1-8.9,3.7c-1.3,2-0.4,4.8-1,7.1c-0.5,1.7-1.8,3.3-1.6,5.1c0.2,0.9,0.7,1.8,1.2,2.7c1.1,2,1.6,4.2,1.5,6.5
	c1.2,0.9,2.9-0.5,3.3-1.9s0-3,0.2-4.5c0.5-2.6,2.8-4.5,3.8-6.8C115.1,52.8,116.3,50,118.8,51.3z"/>
<path id="Path_110" class="st4" d="M88.6,79.6c-0.2,0.6-0.1,1.2,0.2,1.7c0.6,1,2.1,0.6,3.3,0.8c1.8,0.4,3.2,1.9,3.4,3.7
	c0.2,1.8,0.1,3.6-0.5,5.3c-1,4-2.2,7.9-3.7,11.7c-3.8-0.4-7.8-1.9-9.8-5.2c-1.8-3-1.7-6.7-2.8-10c-0.9-2.3-2.2-4.4-3.8-6.3
	c2.3,0.3,4-2.4,4.2-4.7s-0.6-4.7-0.1-7c0.1-0.6,9.3,1.2,10.2,1.8C91.8,73.1,89.1,77.1,88.6,79.6z"/>
<path id="Path_111" class="st2" d="M88.6,79.6c-0.2,0.6-0.1,1.2,0.2,1.7c0.6,1,2.1,0.6,3.3,0.8c1.8,0.4,3.2,1.9,3.4,3.7
	c0.2,1.8,0.1,3.6-0.5,5.3c-1,4-2.2,7.9-3.7,11.7c-3.8-0.4-7.8-1.9-9.8-5.2c-1.8-3-1.7-6.7-2.8-10c-0.9-2.3-2.2-4.4-3.8-6.3
	c2.3,0.3,4-2.4,4.2-4.7s-0.6-4.7-0.1-7c0.1-0.6,9.3,1.2,10.2,1.8C91.8,73.1,89.1,77.1,88.6,79.6z"/>
<circle id="Ellipse_13" class="st4" cx="86.6" cy="63.3" r="12.4"/>
<path id="Path_112" class="st3" d="M82.8,77.8c0.4-0.7-0.3-1.7,0-2.5c0.2-0.5,0.8-0.7,1.2-0.9c0.5-0.4,0.9-1,1.2-1.6
	c1.9-3.7,2.5-8,1.7-12.1c-0.3-1.4-0.6-3.2,0.7-3.8c0.4-0.2,0.7-0.2,1.1-0.2c2.3,0.1,4.5,1.6,6.7,1.1c1.5-0.4,2.7-1.8,2.8-3.3
	c0.1-2.1-1.4-3.8-2.9-5.2c-2.7-2.5-6.9-3.1-10.6-3.1L77.7,46c-2.2,0-4.7,0-6.2,1.6c-2.2,2.3-1.1,6-1.4,9.2c-0.3,2.5-1.5,4.8-3.5,6.4
	c-1.4,1.1-3.4,2.2-3.4,4c0.1,0.6,0.2,1.2,0.5,1.8c0.6,2.4,0.1,5-1.3,7.1c-1.4,2-3.3,3.8-5.4,5.1c-1.1,0.7-2.2,1.5-3.1,2.5
	c-1,1.2-1.5,2.6-1.6,4.1c-0.1,1.2,0.1,2.3,0.7,3.3c1.6,2.1,4.6,2.6,6.8,1.2c2.1-1.4,3.7-3.5,4.5-6c0.5-1.4,1.1-3,2.4-3.7
	c1.7-0.8,3.8,0.5,4.9,2c0.9,1.7,2,3.3,3.3,4.7c2.4,1.9,5.9,1.6,8-0.7c1.3-1.8,1.8-4,1.6-6.1C84.3,80.8,83.7,79.1,82.8,77.8
	L82.8,77.8z"/>
<path id="Path_113" class="st6" d="M87.2,94c-1.5,0.2-3-0.3-4-1.4c-1-1.1-1.8-2.2-2.5-3.5c-1.9-3.2-4-6.1-6.4-8.9
	c-2.1-2.4-5-4.9-8.1-4.1c-1,0.3-2,0.8-2.8,1.5C57.8,82,54.9,88.9,55.7,96c0.2,2,0.8,4,1,6.1c0.1,1.7,0.2,3.4,0.1,5.1
	c-0.1,5.1-0.3,10.6-3,14.9c-4.3,6.7-6.6,14.7-9.8,22c-1.6,4-2.8,8.1-3.7,12.3c-0.6,2.5-1.2,5-1.8,7.4L34.7,180
	c-0.5,1.6-0.7,3.4-0.4,5.1c0.8,2.5,2.9,4.4,5.5,5c2.5,0.6,5.1,0.8,7.7,0.6c4.9-0.1,9.9,0.7,14.5,2.3c1.3,0.6,2.6,1,4,1.2
	c1.4,0.1,2.8-0.2,4.1-0.8c3.5-1.7,6.8-3.6,10-5.8c2.1-1.2,4.3-2.3,6.5-3.1c1.2-0.3,2.3-0.9,3.1-1.8c0.5-0.7,0.9-1.6,1-2.5
	c1.1-5,0.3-10.2,0-15.4s-3.4-10.5-0.9-15c0.6-0.9,1-1.8,1.4-2.8c0.3-1.3,0.1-2.7,0.3-4c0.3-1,0.7-1.9,1.1-2.8
	c0.5-1.7,0.8-3.4,0.7-5.2c0-3.9-0.4-7.7-1.2-11.5c-1-4.8,2.3-9.5,4.2-14c0.8-1.5,1.5-3.2,1.9-4.9c0.2-1.6,0.1-3.2-0.3-4.8
	c-0.4-2.4-0.5-4.9-0.4-7.3c0.2-2.2,0.1-4.4-0.2-6.6c-0.4-2.2-2-4-4.2-4.7c-0.5-0.1-1-0.1-1.4,0.2c-0.2,0.2-0.4,0.6-0.5,0.9
	c-0.5,2.2-0.8,4.4-1,6.7C89.9,91.5,89.4,93.5,87.2,94z"/>
<path id="Path_114" class="st1" d="M57.1,107.7c0.1-0.9-0.3-2.1-1.2-2s-1.2,1.1-1.2,1.9s0.1,1.8-0.5,2.3s-1.4,0.5-2,0.9
	c-0.4,0.3-0.7,0.8-0.7,1.3c0,0.4,0.2,0.9,0.2,1.3s-0.3,1-0.7,0.9c-0.5,0.8-0.3,1.8,0.3,2.4c0.2,0.2,0.5,0.4,0.6,0.7
	c0,0.2,0,0.4,0,0.7c-0.1,0.9,0.5,1.8,1.4,1.9c-0.4,0.4-0.4,1.1,0,1.5c0,0,0,0,0,0l0.1,0.1c0.5,0.4,1.1,0.5,1.7,0.5
	c1.4,0,2.7-0.3,4-0.8c0.4-0.1,0.8-0.4,1.1-0.8c0.3-0.4,0.2-0.9-0.1-1.2c0.6,0.2,1.3,0.1,1.8-0.3c0.6-0.7,0-1.7-0.6-2.3
	c0.7-0.1,1.2-0.8,1.1-1.4c0-0.3-0.2-0.6-0.5-0.8c-0.2-0.2-0.5-0.3-0.5-0.5s0.2-0.4,0.3-0.6c0.2-0.5-0.3-1-0.7-1.3
	c-1.1-0.7-2.6-0.7-3.6-1.4S57,108.6,57.1,107.7z"/>
<path id="Path_115" class="st3" d="M122.9,59.3c-0.8,0.1-1.5,0.1-2.3,0.1c-0.3,0-0.5,0.2-0.6,0.4c0,0,0,0,0,0l-1.5,11.1
	c-0.1,0.8-0.5,1.6-1,2.2c-0.8,1-1.2,2.4-1.1,3.7v18.9c0,0-0.1,2.5,1.8,2.5c2.3,0.3,4.7,0.3,7,0c0,0,1.6-0.3,1.6-2.6V77
	c0.2-1.3-0.1-2.7-1-3.7c-0.5-0.6-0.8-1.4-0.9-2.2l-1.5-11.3C123.4,59.5,123.2,59.3,122.9,59.3z"/>
<path id="Path_116" class="st2" d="M122.9,59.3c-0.8,0.1-1.5,0.1-2.3,0.1c-0.3,0-0.5,0.2-0.6,0.4c0,0,0,0,0,0l-1.5,11.1
	c-0.1,0.8-0.5,1.6-1,2.2c-0.8,1-1.2,2.4-1.1,3.7v18.9c0,0-0.1,2.5,1.8,2.5c2.3,0.3,4.7,0.3,7,0c0,0,1.6-0.3,1.6-2.6V77
	c0.2-1.3-0.1-2.7-1-3.7c-0.5-0.6-0.8-1.4-0.9-2.2l-1.5-11.3C123.4,59.5,123.2,59.3,122.9,59.3z"/>
<path id="Rectangle_1462" class="st7" d="M121.8,77.1L121.8,77.1c2.6,0,4.7,2.1,4.7,4.7c0,0,0,0,0,0v6.5c0,2.6-2.1,4.7-4.7,4.7l0,0
	c-2.6,0-4.7-2.1-4.7-4.7v-6.5C117,79.2,119.1,77.1,121.8,77.1C121.7,77.1,121.7,77.1,121.8,77.1z"/>
<path id="Path_117" class="st3" d="M154.5,11.2c-0.7,0.4-1.4,0.7-2.1,1c-0.3,0.1-0.4,0.4-0.4,0.6l3,10.8c0.2,0.8,0.2,1.6,0,2.4
	c-0.4,1.3-0.3,2.7,0.4,3.8l7.3,17.4c0,0,0.9,2.4,2.7,1.6c2.3-0.6,4.4-1.5,6.4-2.7c0,0,1.3-0.9,0.4-3L165,26c-0.3-1.3-1.2-2.4-2.3-3
	c-0.7-0.4-1.3-1-1.7-1.7l-5.8-9.9C155.1,11.2,154.8,11.1,154.5,11.2C154.5,11.2,154.5,11.2,154.5,11.2z"/>
<path id="Rectangle_1463" class="st7" d="M160.3,28.1L160.3,28.1c2.4-1,5.1,0.1,6.1,2.5c0,0,0,0,0,0l2.5,6c1,2.4-0.1,5.1-2.5,6.1
	l0,0c-2.4,1-5.1-0.1-6.1-2.5c0,0,0,0,0,0l-2.5-6C156.8,31.9,157.9,29.2,160.3,28.1z"/>
<path id="Path_118" class="st4" d="M65,78.1c-3.4,1.4-4.8,5.8-4,9.4s3.2,6.6,5.6,9.5l6.6,8.1c1.8,2.2,3.8,4.6,6.6,5.4
	c4.1,1.1,8.2-1.4,11.7-3.8c10.5-7,21.8-12.9,33.5-17.5c1.2-0.4,2.3-0.9,3.3-1.7c1.9-1.8,2.5-4.6,1.4-7c-1.2-2.3-3.6-3.8-6.2-3.8
	c-2.6,0-5,1.3-6.6,3.4c-0.7,1-1.3,2.1-2,3.1c-2,2.4-4.5,4.2-7.3,5.4c-6.6,3.4-13.4,6.4-20.3,8.9c-1.2,0.6-2.6,0.7-3.9,0.3
	c-0.7-0.4-1.3-1.1-1.7-1.8c-2-3.2-3.6-6.6-4.8-10.3c-0.9-2.7-1.6-5.7-3.7-7.6c-3.1-2.6-7.7-2.2-10.3,0.9l-0.3,0.3c0,0-2.6,3.8-1,5.4
	S65,78.1,65,78.1z"/>
<path id="Path_119" class="st4" d="M243.8,64.9c0.4,1.3,0.5,2.6,0.4,3.9c-0.1,1.6-0.5,3.5-2,4.1c-1,0.4-2.2,0.1-3,0.7
	c-1.1,0.7-1,2.3-0.8,3.5c0.2,3.5,1.2,6.9,2.8,10c1.1,1.5,2.3,2.9,3.8,4.1c2.6,2.7,5.8,4.7,9.4,5.8c0.6,0.2,1.2,0.2,1.8,0.1
	c0.6-0.2,1.1-0.5,1.6-1c2.1-1.9,3.2-4.7,4.6-7.2c1.1-1.7,2-3.6,2.7-5.5c0.9-3.5-0.2-7.3-2.9-9.7c-0.6-0.5-1.3-1-1.9-1.5
	c-1.5-1.5-2.5-3.4-2.9-5.6c-0.3-2.1-0.4-4.3-0.1-6.4c-3.2-0.2-6.4,0.1-9.5,0.8c-1.6,0.2-3.1,0.5-4.6,1.1
	C241.8,62.9,243.4,63.8,243.8,64.9z"/>
<path id="Path_120" class="st2" d="M243.8,64.9c0.4,1.3,0.5,2.6,0.4,3.9c-0.1,1.6-0.5,3.5-2,4.1c-1,0.4-2.2,0.1-3,0.7
	c-1.1,0.7-1,2.3-0.8,3.5c0.2,3.5,1.2,6.9,2.8,10c1.1,1.5,2.3,2.9,3.8,4.1c2.6,2.7,5.8,4.7,9.4,5.8c0.6,0.2,1.2,0.2,1.8,0.1
	c0.6-0.2,1.1-0.5,1.6-1c2.1-1.9,3.2-4.7,4.6-7.2c1.1-1.7,2-3.6,2.7-5.5c0.9-3.5-0.2-7.3-2.9-9.7c-0.6-0.5-1.3-1-1.9-1.5
	c-1.5-1.5-2.5-3.4-2.9-5.6c-0.3-2.1-0.4-4.3-0.1-6.4c-3.2-0.2-6.4,0.1-9.5,0.8c-1.6,0.2-3.1,0.5-4.6,1.1
	C241.8,62.9,243.4,63.8,243.8,64.9z"/>
<path id="Path_121" class="st4" d="M226.1,74.3c-5.2-1.8-7.6-8.7-13.1-9.5c-0.9-0.1-1.7-0.1-2.6-0.3c-3.1-0.7-4.5-4.3-5.4-7.4
	c-2.9-10.3-7.1-20.2-12.7-29.4c-2.4-3.8-6.1-7-7.9-11.2c-0.3-1-0.7-2-1.3-2.8c-0.7-0.8-2.2-0.9-2.6,0.1c-0.1,0.3-0.1,0.7-0.1,1.1
	l0.4,4l-6.5-0.6c-0.6-0.1-1.2-0.1-1.8,0.1c-0.6,0.3-1.1,0.8-1.4,1.5c-2.2,4.1,0.1,9.5,4,12.1c4.5,3,11,3.5,14,8
	c1.8,2.7,1.8,6.2,3,9.2c0.6,1.4,1.4,2.8,2,4.2c1.1,2.7,2,5.5,2.8,8.3c1.5,3.9,3.3,7.7,5.5,11.4c1.4,2.9,3.3,5.6,5.6,7.9
	c1.6,1.4,3.4,2.5,5.4,3.5c4.6,2.5,10,4.9,14.9,3C228.6,83,227.7,78.5,226.1,74.3z"/>
<path id="Path_122" class="st4" d="M241.8,211.6c-0.4,4.2-2.9,7.9-3.5,11.9c-3.9-0.6-7.7-1.4-11.4-2.3l-1.4-0.3
	c2.1-5.7,0.3-12.2,0.8-18.3c0-0.6,0.1-1.2,0.2-1.8c4.8-1.6,9.1-3.8,14.2-3.2l0.3,3.1l0.6,6.1C241.8,208.4,241.9,210,241.8,211.6z"/>
<path id="Path_123" class="st4" d="M275,222c-1.9,0.6-3.8,1.1-5.9,1.5l-1,0.2c-2.1,0.4-4.2,0.7-6.3,0.9c-0.2-4.4-3.2-8.5-3.6-13.1
	c-0.1-1.1-0.1-2.3,0-3.4c0-0.4,0.1-0.9,0.1-1.3l0.9-9.2c0.7-0.1,1.4-0.1,2.2-0.1c4.1,0.1,7.9,1.9,12,3.3c0.3,1.9,0.4,3.9,0.3,5.9
	c-0.2,5-1,10,0.9,14.6C274.8,221.5,274.9,221.7,275,222z"/>
<path id="Path_124" class="st6" d="M221.2,152c0.6,4.4-1.7,8.5-2.6,12.8c-0.5,2.8-0.8,5.7-0.8,8.6l-0.5,17.4c-0.1,1.7,0,3.5,0.4,5.2
	c1.3,3.3,4.2,5.7,7.8,6.4c3.5,0.6,7,0.6,10.5-0.1c4.3,0.1,8-3.2,8.4-7.5l2.1-6.4c2.4,5.4,1.4,11.2,2.8,16.9c0.1,0.5,0.3,1,0.6,1.4
	c0.7,0.6,1.6,0.9,2.5,0.8c6.2,0.7,12.5,0.6,18.7-0.3c3.6-0.1,6.4-3.1,6.3-6.6c0-0.4,0-0.7-0.1-1.1c-0.1-6.9-2.6-13.5-3.1-20.4
	c-0.2-2.9-0.1-5.9-0.2-8.9c-0.1-2.2-0.3-4.4-0.6-6.6c-0.2-3.2-2.5-5.8-5.6-6.4C253,151.4,236.9,151.4,221.2,152z"/>
<circle id="Ellipse_14" class="st4" cx="248.2" cy="52.8" r="13.7"/>
<path id="Path_125" class="st5" d="M260.2,76.9c-0.8,2.3-2.7,4.2-5,5c-2.3,0.4-4.6-0.4-6.1-2.1c-1.5-1.7-2.8-3.5-3.8-5.6
	c-0.7-1.5-1.8-2.8-3.1-3.8c-2-1.1-4.3-1.4-6.6-0.8c-2.2,0.5-4.4,0.8-6.7,0.9c-2.8-0.2-5.7-1.6-8.3-0.7c0.6,4,0.8,8,0.4,12
	c0,0.6-0.1,1.2-0.3,1.8c-0.2,0.5-0.5,1-0.9,1.5l-2.6,3.3c2.8,1.9,5,4.7,6.1,8c0.4,1.9,0.5,3.9,0.4,5.8c-0.1,5.7,1.2,11.4,0.8,17.1
	c-0.5,6.7-3.1,13-4.5,19.5c-1.2,5.6-1.4,11.4-0.6,17.1c14.2,4.8,29.1,7.6,44.1,8.3c2.7,0.1,5.5,0.2,7.7-1.4c1.8-1.4,2.9-3.4,3.2-5.7
	c0.3-2.2,0.2-4.4-0.1-6.6c-0.7-6-1.3-12-2-18c-1-5.9-0.8-12,0.7-17.8l3.2-15.3c0.4-2.2,1-4.3,1.8-6.4c0.7-1.7,1.8-3.2,2.6-4.8
	c1-1.9,1.7-4,2-6.2c0.1-0.6,0.1-1.3,0-1.9c-0.5-1-1.3-1.8-2.4-2.2c-5.9-3.1-12.3-5.4-18.9-6.6C261.2,73.3,260.8,75.1,260.2,76.9z"/>
<path id="Path_126" class="st3" d="M258.9,67.7c1.6-3,4.6-5.2,6.3-8.2c1.9-3.4,2.1-7.6,0.4-11.2c-0.7-1.2-1.3-2.4-1.9-3.7
	c-0.5-1.5-0.6-3.1-1.2-4.6c-0.9-2-2.6-3.5-4.7-4.2c-2-0.7-4.1-1.2-6.3-1.4l-7.3-1c-1-0.2-2.1-0.2-3.1,0c-1.1,0.2-1.9,1.1-2.1,2.2
	c-0.1,1.3,1,2.4,0.8,3.7c-0.1,0.4-0.4,0.9-0.2,1.3c0.1,0.3,0.4,0.5,0.6,0.6c1.8,0.7,3.7,1.3,5.7,1.7c1.9,0.6,3.7,2.2,3.5,4.1
	c-0.1,1-0.8,2.1-0.3,3.1s1.6,1,2.5,1.3c3.1,1,5,4,4.6,7.2c-0.1,1-0.5,1.9-0.5,2.8c-0.2,3.4,0.3,4.3,3,6.3L258.9,67.7z"/>
<path id="Path_127" class="st1" d="M277.5,82.3c0,0.6-0.1,1.3-0.3,1.9c-1,2.1-4,2-6.1,3.2c-2.5,1.5-3.1,4.8-3.3,7.8
	c-0.4,3.3-0.3,6.6,0.2,9.9c0.6,3.3,2.3,6.3,5,8.3c3.5,2.2,7.8,2.5,11.6,1c3.7-1.6,7-4,9.7-7.1c2.7-2.7,4.8-6,6.3-9.5
	c0.3-0.6,0.4-1.3,0.3-2c-0.3-1-1.3-1.4-2.2-1.9c-2-1.3-3.4-3.2-4-5.5c-0.6-2.2-0.9-4.5-0.8-6.8c0-2.4,0-5-1.6-6.9
	c-1.7-1.7-4.2-2.6-6.6-2.3c-2,0-7.5,0.2-8.8,1.9C275.8,75.6,277.6,80.2,277.5,82.3z"/>
<path id="Path_128" class="st2" d="M277.5,82.3c0,0.6-0.1,1.3-0.3,1.9c-1,2.1-4,2-6.1,3.2c-2.5,1.5-3.1,4.8-3.3,7.8
	c-0.4,3.3-0.3,6.6,0.2,9.9c0.6,3.3,2.3,6.3,5,8.3c3.5,2.2,7.8,2.5,11.6,1c3.7-1.6,7-4,9.7-7.1c2.7-2.7,4.8-6,6.3-9.5
	c0.3-0.6,0.4-1.3,0.3-2c-0.3-1-1.3-1.4-2.2-1.9c-2-1.3-3.4-3.2-4-5.5c-0.6-2.2-0.9-4.5-0.8-6.8c0-2.4,0-5-1.6-6.9
	c-1.7-1.7-4.2-2.6-6.6-2.3c-2,0-7.5,0.2-8.8,1.9C275.8,75.6,277.6,80.2,277.5,82.3z"/>
<path id="Path_129" class="st1" d="M260.5,167.8c0.1,0.9,0.8,1.7,1.7,1.8c10.5,3.1,21.6,1.8,32.5,0.6c-1.7-4.5-2.8-9.1-3.4-13.8
	c-0.3-3.9,0-8-1.3-11.6c-0.4-1.1-24.2,3.9-26.5,4.3c-1.2,0.2-2.6,0.1-3.4,1.1c-1,1.2-1.1,3.9-1.2,5.3
	C258.6,159.6,259.2,163.8,260.5,167.8z"/>
<path id="Path_130" class="st1" d="M284.3,218.4c-1.9,0.9-3.9,1.7-5.9,2.4c-1.1,0.4-2.2,0.8-3.4,1.1c-1.9,0.6-3.8,1.1-5.9,1.5
	c-1.1-2.9-2.3-5.8-3.5-8.8c-0.9-2.1-1.7-4.3-2.4-6.5c-0.5-1.5-0.9-3-1.2-4.6c-1.1-5.3-0.8-10.7,0.8-15.9c4.4,0.8,8.7,1.4,13.1,2
	c2.3,0.3,4.6,0.7,7,1.1c0.2,1.5,0.4,3.1,0.5,4.6c0.2,2.4,0.4,4.8,0.6,7.1C284.3,207.8,284.4,213.1,284.3,218.4z"/>
<path id="Path_131" class="st2" d="M284.3,218.4c-1.9,0.9-3.9,1.7-5.9,2.4c-1.1,0.4-2.2,0.8-3.4,1.1c-1.9,0.6-3.8,1.1-5.9,1.5
	c-1.1-2.9-2.3-5.8-3.5-8.8c-0.9-2.1-1.7-4.3-2.4-6.5c-0.5-1.5-0.9-3-1.2-4.6c-1.1-5.3-0.8-10.7,0.8-15.9c4.4,0.8,8.7,1.4,13.1,2
	c2.3,0.3,4.6,0.7,7,1.1c0.2,1.5,0.4,3.1,0.5,4.6c0.2,2.4,0.4,4.8,0.6,7.1C284.3,207.8,284.4,213.1,284.3,218.4z"/>
<path id="Path_132" class="st1" d="M308.8,204.6c-0.1,1.9-0.4,3.7-1,5.5c0,0.1-0.1,0.3-0.1,0.4c-1.2-0.4-2.2-1.1-2.8-2.1
	c-0.3-0.5-0.6-1.1-0.8-1.8c-1.5,1-2.9,2-4.4,2.9c-4.9,3.3-10.1,6.3-15.5,8.9c-1.9,0.9-3.9,1.7-5.9,2.4c-0.4-1.5-0.8-3-1.2-4.5
	c-0.4-1.6-0.8-3.1-1-4.7c-0.5-3.6-0.1-7.3,1.1-10.7l0,0l0.1-0.4c0.5-1.5,1.2-3,2.1-4.4c0.8-1.3,2.4-1.1,4-0.6
	c0.7,0.2,1.5,0.4,2.1,0.6c4.2,0.9,8.5,0,12.8,0.2c2,0.1,4,0.6,5.9,1.5c2.1,0.9,3.6,2.7,4.4,4.8c0.1,0.3,0.2,0.7,0.2,1
	C308.8,203.8,308.8,204.2,308.8,204.6L308.8,204.6z"/>
<path id="Path_133" class="st1" d="M232.1,57.7c-6.7-6.3-14-11.9-21.7-16.8c-2-1.2-3.9-2.6-5.7-4.1c-1.9-1.6-3.6-3.5-5.6-4.9
	c-2-1.6-4.5-2.3-7-2c-2.5,0.4-4.4,2.7-4.3,5.2c0.3,2.2,2.3,3.6,4,4.9c3.3,2.4,6.8,4.6,10.4,6.5c1.3,0.6,2.5,1.3,3.7,2
	c2.2,1.7,4.1,3.7,5.7,6c6.6,8.1,14.6,14.9,23.6,20c0.1,0.1,3.9-8.1,3.7-9.1C238.7,63,233.9,59.4,232.1,57.7z"/>
<path id="Path_134" class="st3" d="M288.4,160.8c-5.1,0.3-10,2-14.9,3.1s-10.4,1.5-15-0.6l2.8,19.2c0.2,1.1,0.3,2.1,0.1,3.2
	c-0.4,1-0.6,2-0.7,3c0.1,1.6,1.6,2.8,3,3.5c4.2,2.2,8.8,3.3,13.5,3.1c-0.4,1.4-0.8,2.8-1.1,4.2c2.3,2.5,6.2,2.7,9.5,3.5
	c2.5,0.6,4.9,1.6,7.4,2.4c3,0.9,6.2,1.3,9.3,1.3c2.1,0.1,4.2-0.5,6-1.6c2-1.6,2.7-4.4,3.1-7c0.3-1.4,0.4-2.9,0.3-4.3
	c-0.3-1.7-0.7-3.3-1.5-4.8l-4.3-10.6c-0.8-1.9-1.6-3.9-2.5-5.7C300.4,166.5,295.2,160.3,288.4,160.8z"/>
<path id="Path_135" class="st7" d="M292.3,94.6c0.8-2,2.8-3.3,5-3c1.3,0.3,2.5,0.8,3.5,1.6l6.1,3.8c1,0.6,2,1.3,2.9,2
	c4.2,3.5,5.8,9.2,6.3,14.6s0,11,1.1,16.3c-2.6,2.1-5.4,3.9-8,6.1c-1.4,1.1-2.6,2.3-3.7,3.7c-0.8,1.1-1.4,2.4-2.2,3.5
	c-1.4,1.7-3.4,2.8-5.6,3.1c1.4,0.9,2.3,2.4,2.6,4c0.4,1.6,0.5,3.2,0.9,4.8c0.6,2.1,1.8,4.1,2.2,6.2c0.2,1.5,0.3,3,0.3,4.5
	c0.5,7.9,6.7,14.7,6.3,22.6c-2.9-1.1-5.7-2.5-8.2-4.3c-1.1-0.8-2.2-1.7-3.3-2.6l-8.1-6.6c-4.1-3.1-7.8-6.6-11.1-10.4
	c-2-2.5-3.6-5.3-5.6-7.8c-1.9-2.6-4.4-4.6-7.4-5.8c-0.4,0.7-1.2,1.1-1.7,1.8c-0.1,0.1-0.1,0.2-0.2,0.4c-0.1,0.3,0,0.6,0.1,0.9
	c0.4,1.3,0.6,2.6,0.6,3.9l0.2,2.4c0.1,0.6,0.1,1.3,0,1.9c-0.4,2.1-2.1,3.7-4.3,4c-0.8,0.2-1.7-0.2-1.9-1.1c0-0.1-0.1-0.2-0.1-0.3
	c-0.8-2.7,0.4-5.6,0.5-8.4c0-0.7,0-1.4-0.1-2.2l-0.2-2.8c-1.9-0.4-2.9-2.4-3.4-4.2c-1.3-4.9-2.7-10-1.9-15.1
	c0.3-1.3,0.4-2.7,0.3-4.1c-0.3-1.8-1.6-3.3-2.3-5c-2.2-5.5,2.5-11.6,2.1-17.5c-0.2-2.5-1.8-4.7-2.7-7c-0.5-1.4-1.1-2.6-1.9-3.9
	c-1-1.3-2.2-2.6-3.6-3.6c-3.9-3.5-7.7-7.1-11.2-11c-1.8-0.2-3.5-1-4.8-2.2c-0.9-0.8-1.5-1.8-1.6-3c-0.1-1.2,0.8-2.3,2-2.4
	c0.7,0.1,1.4,0.2,2,0.4c2.2,0.2,4.2-1,5.1-3c0.8-2,1.1-4.1,0.9-6.2c2.1-0.4,4.1,0.4,5.5,1.9c1.3,1.6,2.5,3.4,3.5,5.3
	c0.5,0.8,1,1.5,1.7,2.1c1.5,1.2,3.8,1.4,5.1,2.9c0.7,0.7,1,1.7,1.7,2.5c1.8,2.2,4.9,2.5,7.3,3.9s4,4.1,6.7,4.9c1,0.3,2,0.4,3,0.7
	c2.2,1,3.6,3.1,3.8,5.4c0.2,2.3-0.1,4.7-0.7,6.9l-1.2,5.3c-0.5,1.1-0.3,2.4,0.4,3.4c0.4,0.3,0.9,0.6,1.4,0.7
	c2.2,0.7,4.7,1.4,6.8,0.4c1-0.5,1.8-1.3,2.5-2.2C288.6,103.8,290.9,99.3,292.3,94.6z"/>
<path id="Path_136" class="st1" d="M317.5,203c-0.3,3-2.1,5.6-4.7,7.1c-1.6,0.8-3.4,0.9-5.1,0.4c-1.2-0.4-2.2-1.1-2.8-2.1
	c-0.3-0.5-0.6-1.1-0.8-1.8v-0.1c-0.2-1.1-0.3-2.3-0.3-3.4c0-1.8,0.1-3.6,0.3-5.4c0.2-1.5,0.5-3,0.9-4.4c0.6-2.1,1.5-4.1,2.2-6.1
	c0.4-1,0.8-2.1,1.1-3.2l0,0c0.2-0.6,0.4-1.3,0.5-1.9v-0.2c0-0.1,0-0.3,0.1-0.4c0.2-1.8,0.6-3.6,1.2-5.3c1.9-3.9,5.6-2.9,6.2,0.7
	c0,0.3,0.1,0.6,0.1,0.8c0.1,4.5-1.7,8.9-0.9,13.4c0.2,1.1,0.5,2.2,0.9,3.3c0.3,1,0.5,2,0.7,3C317.7,199.2,317.7,201.1,317.5,203z"/>
<path id="Path_137" class="st7" d="M319.3,153c0,1.8,0.1,3.7,0.4,5.5c0.9,4.3,4.1,8.1,3.8,12.4c0,1.1-0.5,2.1-1.4,2.7
	c-0.9,0.5-2.5,0.5-2.8,1.5c-0.1,0.3,0,0.6-0.1,0.9c-0.3,0.6-0.9,0.9-1.6,0.9c-0.6-0.1-1.3-0.1-1.9-0.2c-2.3,0.2-3.2,3.3-5.2,4.4
	c-1.5,0.7-3.2,0.4-4.3-0.7c-1.1-1.1-1.7-2.7-1.6-4.3c0.1-1.2,0.4-2.3,0.6-3.5c0.3-2.1,0.3-4.2,0-6.3c-0.2-3.1-0.7-6.1-1.6-9.1
	c-0.5-1.4-1.1-2.7-1.5-4.1c-0.5-2-0.8-4-0.8-6.1c-0.1-4.3,0.2-8.9,2.8-12.4c1.9-2.6,4.7-4.7,6.9-7.1c1.4-1.5,1.8-2,3.3-0.7
	c1.3,0.9,2.3,2.3,2.7,3.9c0.4,3.6,0,7.2,0.7,10.9C318.4,145.5,318.9,149.2,319.3,153z"/>
<circle id="Ellipse_15" class="st1" cx="286.2" cy="66.5" r="16.3"/>
<path id="Path_138" class="st3" d="M301.1,97.6c0.4-0.9,1.4-1.4,2.3-1c0.1,0,0.2,0.1,0.4,0.2l4.3,1.8c1.2-1.9,1.8-4.1,2-6.3
	c0-1.4,0.1-2.7,0.3-4.1c0.4-2,1.6-3.8,1.8-5.8c0.1-1.6,0-3.3-0.4-4.9c-0.7-5,0-10.1-0.4-15.2s-2.5-10.5-7-12.8
	c-1.3-0.6-2.6-1.1-4-1.5c-3-1.1-5.6-2.9-8.5-4.2c-2.9-1.4-6.2-1.6-9.2-0.4c-2.8,1.4-4.5,5.3-2.6,7.9c0.7,0.8,1.5,1.5,2.3,2
	c1.9,1.1,3.2,2.8,3.9,4.8c0.7,3.8-3.2,6.7-4.3,10.4c-0.4,1.4-0.4,2.9-0.1,4.4c0.5,2.2,1.6,4.2,1.6,6.4c0,2.4-1.5,4.7-1.8,7.1
	c-0.1,0.9,0,1.8-0.1,2.7c-0.2,1.2-0.5,2.3-1,3.4c-2.3,6.5-5.3,12.7-8.9,18.6c4.1,0.1,8.1-0.9,11.7-2.7c-0.5,2.5-1.5,4.8-2.9,6.9
	c3.2-0.4,6.4-1.5,9.1-3.2c-0.7,2.4-1.6,4.7-2.9,6.9c0.1-0.2,2.1-0.6,2.5-0.8c0.8-0.4,1.4-1.1,1.8-1.9c1.1-1.9,1.8-4.3,2.8-6.3
	C295.8,105.7,298.3,101.5,301.1,97.6L301.1,97.6z"/>
<path id="Path_139" class="st3" d="M177.8,0c-0.8,0.1-1.5,0.1-2.3,0.1c-0.3,0-0.5,0.2-0.6,0.4c0,0,0,0,0,0l-1.5,11.1
	c-0.1,0.8-0.5,1.6-1,2.2c-0.9,1-1.2,2.3-1.1,3.7v18.9c0,0-0.1,2.5,1.8,2.5c2.3,0.3,4.7,0.3,7,0c0,0,1.6-0.3,1.6-2.6V17.7
	c0.2-1.3-0.1-2.7-1-3.7c-0.5-0.6-0.8-1.4-0.9-2.2l-1.5-11.4C178.2,0.2,178,0,177.8,0z"/>
<path id="Rectangle_1464" class="st7" d="M176.6,17.8L176.6,17.8c2.6,0,4.7,2.1,4.7,4.7c0,0,0,0,0,0V29c0,2.6-2.1,4.7-4.7,4.7l0,0
	l0,0c-2.6,0-4.7-2.1-4.7-4.7c0,0,0,0,0,0v-6.5C171.9,19.9,174,17.8,176.6,17.8C176.6,17.8,176.6,17.8,176.6,17.8z"/>
<path id="Path_140" class="st3" d="M199.8,16.3c-0.8,0.1-1.6,0.1-2.3,0.1c-0.3,0-0.5,0.2-0.6,0.4l-1.5,11.1
	c-0.1,0.8-0.4,1.6-0.9,2.2c-0.9,1-1.3,2.3-1.1,3.7v18.9c0,0-0.1,2.5,1.8,2.5c2.3,0.3,4.7,0.3,7,0c0,0,1.6-0.3,1.6-2.6V33.9
	c0.2-1.3-0.1-2.7-1-3.7c-0.5-0.6-0.8-1.4-0.9-2.2l-1.5-11.3C200.3,16.4,200,16.2,199.8,16.3z"/>
<path id="Rectangle_1465" class="st7" d="M198.6,34.1L198.6,34.1c2.6,0,4.7,2.1,4.7,4.7c0,0,0,0,0,0v6.5c0,2.6-2.1,4.7-4.7,4.7
	c0,0,0,0,0,0l0,0c-2.6,0-4.7-2.1-4.7-4.7l0,0v-6.5C193.9,36.2,196,34.1,198.6,34.1C198.6,34.1,198.6,34.1,198.6,34.1z"/>
<g id="Group_5" class="st8">
	<path id="Path_141" class="st3" d="M175,206.8c0,0.3-0.1,0.7-0.1,1c-2.2-0.4-4.4-0.7-6.7-0.9v-0.3c0-1,0.3-1.9,0.8-2.7
		c0.7-1.5,2.5-2.1,4-1.4c0.6,0.3,1.1,0.9,1.4,1.5C174.8,204.9,175.1,205.8,175,206.8z"/>
	
		<ellipse id="Ellipse_16" transform="matrix(3.158516e-02 -0.9995 0.9995 3.158516e-02 -34.7515 366.5756)" class="st3" cx="171.8" cy="201.2" rx="4.5" ry="3.4"/>
	
		<ellipse id="Ellipse_17" transform="matrix(3.158516e-02 -0.9995 0.9995 3.158516e-02 -29.139 361.4634)" class="st3" cx="172" cy="195.8" rx="4.5" ry="3.4"/>
	
		<ellipse id="Ellipse_18" transform="matrix(3.158516e-02 -0.9995 0.9995 3.158516e-02 -23.5063 356.3322)" class="st3" cx="172.1" cy="190.3" rx="4.5" ry="3.4"/>
	
		<ellipse id="Ellipse_19" transform="matrix(3.158516e-02 -0.9995 0.9995 3.158516e-02 -17.8842 351.2301)" class="st3" cx="172.3" cy="184.8" rx="4.5" ry="3.4"/>
	<path id="Path_142" class="st7" d="M160.7,147.1c-0.5-0.6-0.9-1.2-1.2-1.9l9-1.2l-9.7-0.2c-1.8-4.2-1.7-8.9,0.1-13l12.8,7.2
		l-11.7-9.2c4.7-7.7,14.8-10.1,22.5-5.3c7.7,4.7,10.1,14.8,5.3,22.5c-0.4,0.7-0.9,1.4-1.4,2c0.7,0.9,1.3,1.9,1.8,3l-11.8,5.7
		l12.5-3.8c1.6,5.3,0.4,11-3.1,15.3c5.4,7.3,3.8,17.5-3.5,22.9s-17.5,3.8-22.9-3.5c-4.5-6.1-4.2-14.4,0.6-20.2
		C155.6,161.2,155.9,152.9,160.7,147.1L160.7,147.1z"/>
	<path id="Path_143" class="st2" d="M189.6,158.1c-0.1,3.7-1.5,7.2-3.8,10c5.4,7.3,3.8,17.5-3.5,22.9s-17.5,3.8-22.9-3.5
		c-4.5-6.1-4.2-14.4,0.6-20.2C158,164.4,189.6,156.3,189.6,158.1z"/>
</g>
</svg>
