<svg id="b9323f14-ca83-42a0-aa00-1a5bcb884108" xmlns="http://www.w3.org/2000/svg" viewBox="0 0 590.57 740"><polygon points="589.46 489.77 22.16 489.77 22.16 508.07 110.64 508.07 110.64 681.92 129.5 680.98 128.94 508.07 473.53 508.07 473.53 681.92 491.37 686.62 491.83 508.07 589.46 508.07 589.46 489.77" fill="#e6e6e6"/><rect x="23.28" y="435.02" width="567.3" height="18.3" fill="#e6e6e6"/><rect x="23.28" y="389.27" width="567.3" height="18.3" fill="#e6e6e6"/><rect x="23.28" y="343.52" width="567.3" height="18.3" fill="#e6e6e6"/><polygon points="589.46 489.77 22.16 489.77 22.16 508.07 110.64 508.07 110.64 681.92 129.5 680.98 128.94 508.07 473.53 508.07 473.53 681.92 491.37 686.62 491.83 508.07 589.46 508.07 589.46 489.77" fill="#e6e6e6"/><rect x="23.28" y="435.02" width="567.3" height="18.3" fill="#e6e6e6"/><rect x="23.28" y="389.27" width="567.3" height="18.3" fill="#e6e6e6"/><rect x="23.28" y="343.52" width="567.3" height="18.3" fill="#e6e6e6"/><polygon points="168.22 296.66 94.1 313.62 62.79 254.56 126.16 229.82 168.22 296.66" fill="#2f2e41"/><rect x="216.64" y="338.05" width="212.39" height="8.12" fill="#3f3d56"/><path d="M391.15,311h-3.8a8.09,8.09,0,0,0,1.1-4.06V293.41a8.13,8.13,0,0,0-8.12-8.12h-3.18a8,8,0,0,0,.47-2.7V269.06a8.12,8.12,0,0,0-8.11-8.12h-92a8.13,8.13,0,0,0-8.12,8.12h0v13.53a8,8,0,0,0,.47,2.7H266.7a8.12,8.12,0,0,0-8.12,8.12h0v13.53a8.09,8.09,0,0,0,1.1,4.06h-3.81a8.11,8.11,0,0,0-8.11,8.11h0v13.53a8.12,8.12,0,0,0,8.11,8.12H391.15a8.12,8.12,0,0,0,8.12-8.12h0V319.11a8.11,8.11,0,0,0-8.12-8.11Z" fill="#3ff889"/><path d="M374.92,263c0-3.36-23-6.09-51.41-6.09s-51.4,2.73-51.4,6.09c0,1.67,5.68,3.19,14.88,4.29v5.52a1.69,1.69,0,0,0,1.69,1.69h.68a1.7,1.7,0,0,0,1.69-1.69v-5.09c2.12.21,4.38.39,6.76.55v4.54a1.69,1.69,0,0,0,1.69,1.69h.68a1.69,1.69,0,0,0,1.69-1.69v-4.29c6.2.35,13.08.54,20.33.57a1.27,1.27,0,0,0,0,.34v6.09a1.7,1.7,0,0,0,1.69,1.69h.68a1.7,1.7,0,0,0,1.69-1.69V269.4a1.39,1.39,0,0,0,0-.35c6.24,0,12.17-.21,17.63-.48v5.56a1.68,1.68,0,0,0,1.69,1.69h.67a1.68,1.68,0,0,0,1.69-1.69v-5.8c5.7-.36,10.74-.85,14.88-1.43v4.53a1.7,1.7,0,0,0,1.7,1.69h.67a1.69,1.69,0,0,0,1.69-1.69v-5.18C371.93,265.31,374.92,264.18,374.92,263Z" fill="#e6e6e6"/><rect x="269.4" y="283.94" width="108.22" height="2.71" fill="#3f3d56"/><rect x="259.93" y="309.64" width="127.16" height="2.71" fill="#3f3d56"/><rect x="250.46" y="333.99" width="147.45" height="2.71" fill="#3f3d56"/><rect x="320.81" y="239.3" width="4.06" height="23" fill="#e6e6e6"/><path d="M328.61,236.42c0,4.61-2.57,4.7-5.74,4.7s-8.38-.92-5.74-4.7c2.78-4,7.54-11.6,5.74-12C322.87,224.42,328.61,231.81,328.61,236.42Z" fill="#f9a825"/><path d="M324.89,239.26c0,1.82-1,1.86-2.27,1.86s-3.32-.36-2.28-1.86,3-4.59,2.28-4.75C322.62,234.51,324.89,237.43,324.89,239.26Z" fill="#ff6584" opacity="0.5" style="isolation:isolate"/><rect x="343.81" y="240.65" width="4.06" height="23" fill="#e6e6e6"/><path d="M351.6,237.77c0,4.61-2.57,4.7-5.74,4.7s-8.37-.91-5.74-4.7c2.78-4,7.55-11.6,5.74-12C345.86,225.77,351.6,233.16,351.6,237.77Z" fill="#f9a825"/><path d="M347.88,240.61c0,1.83-1,1.86-2.27,1.86s-3.31-.36-2.27-1.86,3-4.59,2.27-4.75C345.61,235.86,347.88,238.78,347.88,240.61Z" fill="#ff6584" opacity="0.5" style="isolation:isolate"/><rect x="299.16" y="240.65" width="4.06" height="23" fill="#e6e6e6"/><path d="M307,237.77c0,4.61-2.57,4.7-5.74,4.7s-8.37-.91-5.74-4.7c2.78-4,7.55-11.6,5.74-12C301.22,225.77,307,233.16,307,237.77Z" fill="#f9a825"/><path d="M303.24,240.61c0,1.83-1,1.86-2.27,1.86s-3.31-.36-2.27-1.86,3-4.59,2.27-4.75C301,235.86,303.24,238.78,303.24,240.61Z" fill="#ff6584" opacity="0.5" style="isolation:isolate"/><path d="M550.6,313.29l-71.17-12.86c-5-19.75-11.83-40.61-.84-58.47,3.21-13.49,17.66-17.35,32.3-20.69s30.27,1.94,39.17,14.11c6.33,8.64,8,17.31,5.45,28.09C562.57,274,559.2,299.62,550.6,313.29Z" fill="#2f2e41"/><path d="M444,721.45l-31-21.18L453.8,558.19l43-71L417.17,535.6l4.15,94.58-40.11,20.34L370.48,533.21a38.33,38.33,0,0,1,19.13-36.76l65.62-37.57,5.18-54,72.41-11.11c28,36.09,42.86,69.22,30,96.07L497.56,574Z" fill="#2f2e41"/><path d="M428.83,706.1s-5.53-11.14-11.29-7.6-21,19.55-21,19.55-28.12,8-8.71,15.94,26.35,6.28,26.71,4.73,4.58-5.46,4.58-5.46l7.38,3.39,11.59-.51s11.45-27.45,6.53-27.45S429.28,711.12,428.83,706.1Z" fill="#2f2e41"/><path d="M400.79,637s-12.36-1.45-12.53,5.31,4.9,28.3,4.9,28.3-8.6,28,8.61,16,19.63-18.65,18.54-19.8-2.08-6.82-2.08-6.82l6.87-4.33,5.89-10S414.24,621,411.56,625.15,405.23,639.32,400.79,637Z" fill="#2f2e41"/><circle cx="504.89" cy="256.84" r="26.85" transform="translate(157.21 704.04) rotate(-79.1)" fill="#a0616a"/><path d="M520.15,344l-65.84-.36c7.21-18.77,14.94-36.05,28.53-36.13,10.73-10,9.56-23.42,4.46-38l33.51,4.15c-1.55,9.66.68,17.64,9.12,22.87C521.42,312.89,516.66,328.88,520.15,344Z" fill="#a0616a"/><path d="M554.5,426.21,463.19,433l-6.92-42.83c-19.07-18.21-16.77-36.56.83-55l6.43-23.76,14.06-4.32h0a14.78,14.78,0,0,0,15.46,22.51l5.15-1.09a14.77,14.77,0,0,0,9.36-6.45l18.53-28.71,9.66,1.19a5.31,5.31,0,0,1,4.53,4.16l9,42.32C538,357.56,554.57,403.69,554.5,426.21Z" fill="#f49819"/><path d="M473.12,473.87l9.18,16.62a13.12,13.12,0,0,1-5.14,17.82,14.41,14.41,0,0,1-1.43.68h0a13.11,13.11,0,0,1-18-12.48l.44-17.77-19-68.16,2-47,19.93,3.21-.42,43.6Z" fill="#a0616a"/><path d="M526.16,459.93l-8.58,16.93a13.1,13.1,0,0,0,5.76,17.62,13.24,13.24,0,0,0,1.45.63h0a13.11,13.11,0,0,0,16.8-7.85,13.25,13.25,0,0,0,.77-5.26l-1.08-17.74,16.6-68.79-3.68-47-19.8,3.92,2,43.56Z" fill="#a0616a"/><path d="M466.19,371l-30.47-7.25,11.21-37.54a23,23,0,0,1,17.55-16l7.34-1.48Z" fill="#f49819"/><path d="M526.52,360.86l.61-23.6,5.73-38.48a5.29,5.29,0,0,1,5.18-4.51h0a5.32,5.32,0,0,1,3,.89l25.33,59C561.72,364.88,532.49,348.05,526.52,360.86Z" fill="#f49819"/><path d="M229.8,716.12l27.78-25.24-59.9-135.12-52.35-64.43,85.52,37,8.9,94.25,42.53,14.63-5.52-117.67a38.33,38.33,0,0,0-24-33.78L182.6,457.58,170,404.85,96.79,403.8C74,443.41,63.86,478.27,80.28,503.09l76.22,74.33Z" fill="#2f2e41"/><path d="M242.75,698.83s3.95-11.8,10.14-9.09,23.52,16.48,23.52,16.48,29,4.09,10.82,14.59-25.23,9.84-25.81,8.35-5.28-4.78-5.28-4.78l-6.85,4.38-11.54,1.08s-15.12-25.6-10.25-26.28S243,703.86,242.75,698.83Z" fill="#2f2e41"/><path d="M261,626.47s12-3.13,13.14,3.54-1,28.7-1,28.7,12.37,26.5-6.32,17-22-15.77-21.09-17.07,1.12-7,1.12-7l-7.4-3.34-7.21-9.08s13.21-26.65,16.44-22.94S256.94,629.43,261,626.47Z" fill="#2f2e41"/><circle cx="105.61" cy="264.29" r="26.85" fill="#ffb9b9"/><path d="M102.49,352.76l65.17-9.41c-9.73-17.61-19.76-33.66-33.24-31.86-12-8.4-12.68-21.89-9.65-37.06l-32.61,8.72c2.87,9.35,1.76,17.56-5.89,23.91C97,322.09,103.86,337.27,102.49,352.76Z" fill="#ffb9b9"/><path d="M97.57,409.9c23.15,30.15,46.9,42.07,72.43-1l2.11-19.23c16.38-20.66,11.58-38.52-8.4-54.36l-9.63-22.65-14.52-2.34h0a14.77,14.77,0,0,1-12.22,24.41l-5.25-.37a14.76,14.76,0,0,1-10.16-5.09l-22.3-25.89-9.4,2.51a5.29,5.29,0,0,0-3.92,4.74l-3,43.15C86.68,368.61,94.4,387.61,97.57,409.9Z" fill="#25acc9"/><path d="M87.2,391.54,35.92,381.12,70,349.43,57,326,2,384.54a7.83,7.83,0,0,0,5,12.95l74.56,8.26,3.06,13.49A11.47,11.47,0,0,0,102,426.37h0a11.47,11.47,0,0,0,3.48-15.84,11.25,11.25,0,0,0-1.46-1.84Z" fill="#ffb9b9"/><path d="M166.94,474.9l-6.81,17.72A13.13,13.13,0,0,0,169.18,510h0a13.11,13.11,0,0,0,16.13-14.84l-2.88-17.54,9.46-70.13-8.46-46.32-19.3,5.93,6.41,43.12Z" fill="#ffb9b9"/><path d="M159.66,372.08l29.18-11.38-16.27-35.63A23.07,23.07,0,0,0,153,311.62l-7.49-.45Z" fill="#25acc9"/><path d="M63.54,357.54,94.65,347l-11-37.32a5.3,5.3,0,0,0-5.75-3.76h0a5.33,5.33,0,0,0-2.84,1.29L43.3,335.42C49.38,345.43,55.86,345.68,63.54,357.54Z" fill="#25acc9"/><path d="M123.45,220.71s16.41,3.09,20.21,23.56a37.43,37.43,0,0,1,.32,10.46c-.38,3.94.17,12.27,8.73,22.07a215.08,215.08,0,0,1,15.59,20h0l-17.16,4.57L143.47,273a145.29,145.29,0,0,0-17-39l-.15-.25s-5.7,15.23-21,17.31l4.71-6.2s-17.86,10.32-28,13.48A6.64,6.64,0,0,0,80,269.79l.22.17c7.44,5.65,22.62,19.13,16.62,32.18s1,15.42,1,15.42L84.9,312.65,79,310.13l.6,4.36-28.81.6s-7.78,0,6-20.82c0,0,3.34-7.8.6-13.75A31.59,31.59,0,0,1,54.23,266C55.1,245.08,63.93,202.46,123.45,220.71Z" fill="#2f2e41"/><path d="M481.23,235.69,506,251.47l2.25-4.51c15,10.82,11.76,38.49,4.51,69.9,0,0,26.2,9.61,29.31,0,5.53-17.11,1.13-57.49,1.13-57.49l-9-23.68-14.66-7.89-12.4-1.13S495.88,221,481.23,235.69Z" fill="#2f2e41"/><ellipse cx="519.55" cy="266.13" rx="3.38" ry="4.51" fill="#a0616a"/><circle cx="258.17" cy="67.72" r="3.47" fill="#e6e6e6"/><circle cx="309.32" cy="176.97" r="3.47" fill="#e6e6e6"/><circle cx="295.45" cy="98.94" r="3.47" fill="#e6e6e6"/><circle cx="239.09" cy="135.35" r="3.47" fill="#e6e6e6"/><path d="M275.32,68.38a18.73,18.73,0,0,1,1.5,26.45,18.51,18.51,0,0,1-3.24,2.88c-1.76,1.24-.07,4.18,1.71,2.92a22.7,22.7,0,0,0,9.59-16.52A22.46,22.46,0,0,0,277.71,66c-1.6-1.47-4,.91-2.39,2.39Z" fill="#e6e6e6"/><path d="M306.53,112.6a18.68,18.68,0,0,1-1.74,29.32c-1.76,1.25-.07,4.18,1.71,2.93a22.72,22.72,0,0,0,9.59-16.53,22.39,22.39,0,0,0-7.17-18.11c-1.6-1.48-4,.91-2.39,2.39Z" fill="#e6e6e6"/><path d="M253.37,151a22.43,22.43,0,0,0-7.18,18.11,22.66,22.66,0,0,0,9.6,16.52c1.78,1.26,3.47-1.67,1.7-2.92a18.73,18.73,0,0,1-4.61-26.08,18.51,18.51,0,0,1,2.88-3.24c1.6-1.48-.79-3.87-2.39-2.39Z" fill="#e6e6e6"/><path d="M280.75,128.76c-4.39-.48-9.84-.41-12.27,4-1.92,3.49.4,8.84,4.83,8.37a1.71,1.71,0,0,0,.45-3.33c-3.16-1-5.95,2-5.9,5.1.05,3.5,3.48,5.59,6.34,6.72l.9-3.26a7.64,7.64,0,0,0-9,6,6.49,6.49,0,0,0-.11.77c-.3,4.74,4.38,8.17,8.79,7.56,2.14-.3,1.23-3.56-.9-3.26a4,4,0,1,1-1.11-7.86,3.87,3.87,0,0,1,1.44.06,1.7,1.7,0,0,0,2-1.26,1.68,1.68,0,0,0-1.14-2c-1.38-.55-3.09-1.4-3.7-2.85-.39-.94.2-2.84,1.46-2.44l.45-3.33a2,2,0,0,1-2.15-1.6,3,3,0,0,1,1.21-2.86c2.27-1.94,5.64-1.47,8.38-1.17C282.91,132.38,282.89,129,280.75,128.76Z" fill="#e6e6e6"/><path d="M230.46,105.35c-4.39-.48-9.84-.41-12.27,4-1.92,3.49.41,8.84,4.83,8.37a1.7,1.7,0,0,0,.45-3.32c-3.16-1-5.94,2-5.9,5.09.05,3.5,3.49,5.59,6.35,6.72l.9-3.26a7.64,7.64,0,0,0-9,6q-.08.38-.12.78c-.29,4.73,4.38,8.16,8.79,7.55,2.15-.3,1.23-3.56-.9-3.26a4,4,0,1,1,.34-7.8,1.69,1.69,0,0,0,.9-3.26c-1.39-.55-3.09-1.4-3.7-2.85-.39-.94.19-2.84,1.45-2.44l.45-3.33a2,2,0,0,1-2.15-1.6,3,3,0,0,1,1.21-2.86c2.28-1.94,5.65-1.46,8.38-1.17,2.16.24,2.15-3.15,0-3.38Z" fill="#e6e6e6"/><path d="M328.35,184c4.38.47,9.83.4,12.27-4,1.91-3.5-.41-8.84-4.84-8.37a1.7,1.7,0,0,0-.45,3.32c3.16,1,5.95-2,5.9-5.09-.05-3.51-3.48-5.59-6.34-6.72l-.9,3.26a7.66,7.66,0,0,0,9-6,7,7,0,0,0,.11-.78c.3-4.73-4.38-8.17-8.78-7.55-2.15.3-1.24,3.56.89,3.26a4,4,0,1,1,1.11,7.86,3.87,3.87,0,0,1-1.44-.06,1.69,1.69,0,0,0-.9,3.26c1.38.54,3.09,1.4,3.7,2.85.39.94-.19,2.83-1.46,2.44l-.45,3.32a2,2,0,0,1,2.16,1.61,3,3,0,0,1-1.22,2.86c-2.27,1.94-5.64,1.46-8.37,1.16-2.17-.23-2.15,3.15,0,3.39Z" fill="#e6e6e6"/><circle cx="356.24" cy="3.47" r="3.47" fill="#e6e6e6"/><circle cx="407.4" cy="112.71" r="3.47" fill="#e6e6e6"/><circle cx="393.53" cy="34.68" r="3.47" fill="#e6e6e6"/><circle cx="337.17" cy="71.09" r="3.47" fill="#e6e6e6"/><path d="M373.39,4.12a18.74,18.74,0,0,1-1.73,29.33c-1.77,1.25-.08,4.18,1.71,2.92A22.7,22.7,0,0,0,383,19.85a22.44,22.44,0,0,0-7.18-18.12c-1.6-1.47-4,.91-2.39,2.39Z" fill="#e6e6e6"/><path d="M404.6,48.34a18.73,18.73,0,0,1,1.51,26.45,18.51,18.51,0,0,1-3.24,2.88c-1.76,1.24-.08,4.18,1.71,2.92a22.7,22.7,0,0,0,9.59-16.52A22.46,22.46,0,0,0,407,46c-1.6-1.47-4,.91-2.4,2.39Z" fill="#e6e6e6"/><path d="M351.44,86.7a22.46,22.46,0,0,0-7.17,18.12,22.7,22.7,0,0,0,9.59,16.52c1.78,1.26,3.47-1.68,1.71-2.92A18.73,18.73,0,0,1,351,92.33a18.46,18.46,0,0,1,2.88-3.24c1.6-1.48-.8-3.86-2.4-2.39Z" fill="#e6e6e6"/><path d="M378.82,64.5c-4.38-.47-9.83-.41-12.27,4-1.91,3.49.41,8.84,4.84,8.37A1.71,1.71,0,0,0,373,75.14a1.68,1.68,0,0,0-1.19-1.56c-3.16-1-5.95,2-5.9,5.09.05,3.51,3.48,5.59,6.34,6.72l.9-3.26a7.65,7.65,0,0,0-9,6,7,7,0,0,0-.11.78c-.3,4.73,4.38,8.17,8.78,7.55,2.15-.3,1.24-3.56-.9-3.26a4,4,0,1,1-1.1-7.86,3.87,3.87,0,0,1,1.44.06,1.69,1.69,0,0,0,.9-3.26c-1.38-.55-3.09-1.4-3.7-2.85-.39-.94.19-2.83,1.46-2.44l.45-3.32a2,2,0,0,1-2.16-1.61,3,3,0,0,1,1.21-2.86c2.28-1.94,5.65-1.46,8.38-1.17,2.16.24,2.15-3.14,0-3.38Z" fill="#e6e6e6"/><path d="M328.54,41.09c-4.39-.47-9.84-.4-12.27,4-1.92,3.5.4,8.84,4.83,8.37a1.7,1.7,0,0,0,.45-3.32c-3.16-1-5.95,2-5.9,5.09.05,3.51,3.48,5.59,6.34,6.72l.9-3.26a7.66,7.66,0,0,0-9,6,7,7,0,0,0-.11.78c-.3,4.73,4.38,8.17,8.79,7.55,2.14-.3,1.23-3.56-.9-3.26a4,4,0,1,1-1.11-7.86A3.87,3.87,0,0,1,322,62a1.69,1.69,0,0,0,.9-3.26c-1.38-.54-3.09-1.4-3.7-2.85-.39-.94.2-2.83,1.46-2.44l.45-3.32A2,2,0,0,1,319,48.5a3,3,0,0,1,1.21-2.86c2.27-1.94,5.64-1.46,8.38-1.16,2.16.23,2.14-3.15,0-3.39Z" fill="#e6e6e6"/><path d="M426.42,119.74c4.39.48,9.84.41,12.27-4,1.92-3.49-.41-8.84-4.83-8.37a1.7,1.7,0,0,0-1.64,1.76,1.68,1.68,0,0,0,1.19,1.56c3.16,1,5.94-2,5.9-5.09-.05-3.5-3.48-5.59-6.35-6.72l-.89,3.26a7.65,7.65,0,0,0,9-6,6.37,6.37,0,0,0,.11-.78c.3-4.73-4.38-8.16-8.79-7.55-2.14.3-1.23,3.56.9,3.26a4,4,0,1,1,1.11,7.86,3.94,3.94,0,0,1-1.45-.06,1.69,1.69,0,0,0-.89,3.26c1.38.55,3.09,1.4,3.69,2.85.4.94-.19,2.83-1.45,2.44l-.45,3.33a2,2,0,0,1,2.15,1.6,3,3,0,0,1-1.21,2.86c-2.27,1.94-5.64,1.46-8.38,1.17-2.16-.24-2.14,3.15,0,3.38Z" fill="#e6e6e6"/><path d="M546,234.32,541.3,224l-3.7-8.21-5.37-11.9-3.72-8.21-5-11.17a1.15,1.15,0,0,0-2-.2l-5.19,7.24-4,5.6-5.83,8.1-4,5.61-5.83,8.1-4,5.6-3,4.15a1.09,1.09,0,0,0-.21.55,1.12,1.12,0,0,0,1,1.23l54.4,5.43a1.05,1.05,0,0,0,.92-.34l.12-.12a1.22,1.22,0,0,0,.2-.55A1.15,1.15,0,0,0,546,234.32Z" fill="#f49819"/><polygon points="532.23 203.88 512.3 197.13 516.33 191.54 528.51 195.67 532.23 203.88" fill="#e6e6e6"/><polygon points="541.3 223.99 502.46 210.85 506.47 205.24 537.6 215.78 541.3 223.99" fill="#e6e6e6"/><path d="M545.75,235.57a1.05,1.05,0,0,1-.92.34l-26.45-2.64-25.76-8.72,4-5.6Z" fill="#e6e6e6"/><circle cx="523" cy="179.35" r="9.02" fill="#f49819"/><path d="M128.5,222.73l-5.67-9.82-4.5-7.8L111.8,193.8l-4.51-7.8-6.12-10.62a1.14,1.14,0,0,0-1.55-.41,1.15,1.15,0,0,0-.41.41l-4.45,7.72-3.45,6-5,8.64-3.44,6-5,8.64-3.44,6-2.55,4.43a1,1,0,0,0-.16.56,1.19,1.19,0,0,0,.14.56,1.13,1.13,0,0,0,1,.57h54.67a1.05,1.05,0,0,0,.88-.43.71.71,0,0,0,.1-.14,1.09,1.09,0,0,0,0-1.12Z" fill="#25acc9"/><polygon points="111.8 193.8 91.31 189.07 94.76 183.1 107.3 186 111.8 193.8" fill="#e6e6e6"/><polygon points="122.83 212.91 82.88 203.69 86.32 197.71 118.33 205.11 122.83 212.91" fill="#e6e6e6"/><path d="M128.41,224a1.05,1.05,0,0,1-.88.43H101L74.44,218.3l3.44-6Z" fill="#e6e6e6"/><circle cx="100.19" cy="170.31" r="9.02" fill="#25acc9"/></svg>