<svg xmlns="http://www.w3.org/2000/svg" viewBox="0 0 382.35 58.24"><g id="Text"><path d="M41.42,32.19A13,13,0,0,1,39.91,42q-3,5-12.87,7.06c-.5.1-1.22.25-2.16.42L22.76,50q-11,2.34-13.22,2.33a.94.94,0,0,1-1.06-.75q-.68-3.19-1.67-9.76T5.13,32Q4.39,28.53,2,19,1.42,16.6.14,11.75L0,11.34c-.1-.38.17-.67.8-.89s2.93-.74,6.89-1.58q9.54-2,11.16-2.29,7.41-1.29,11.36.1,5.22,1.86,6.65,8.61a8,8,0,0,1-.28,4,15.66,15.66,0,0,1-1.44,3.24,7.31,7.31,0,0,1-.87,1.37c0,.14.34.31.92.49a8.33,8.33,0,0,1,4.09,3.11A12,12,0,0,1,41.42,32.19ZM25,18.08a3.41,3.41,0,0,0-3.29-2.87,18.36,18.36,0,0,0-4.82.55c-2.15.46-3.2.84-3.13,1.16s.17,1,.26,1.74.18,1.37.26,1.74c.42,2,.82,3.08,1.21,3.24s1.54,0,3.86-.53Q25.79,21.76,25,18.08ZM29.44,34.6a3.68,3.68,0,0,0-3-3.18,13.7,13.7,0,0,0-4.79.39c-2.57.54-3.94.93-4.12,1.17s0,1.48.44,3.73.9,3.62,1.21,3.82,1.78,0,4.39-.54A14,14,0,0,0,28,38.52,3.43,3.43,0,0,0,29.44,34.6Z" fill="#f49819"/><path d="M55.29,36.73q0,2,.09,6t.08,6q0,.59-.69.69a32,32,0,0,1-4.22.17,32.39,32.39,0,0,1-4.26-.17c-.4-.07-.65-.19-.74-.36a2.8,2.8,0,0,1-.06-.82q0-1.9.09-5.73c.05-2.55.08-4.47.08-5.76a99.65,99.65,0,0,0-.61-12.47,4.79,4.79,0,0,1,0-.58c0-.37.24-.56.74-.56s1.3.06,2.36.17,1.86.17,2.39.17,1.33-.05,2.4-.14,1.87-.14,2.4-.14.67.18.67.55a5.05,5.05,0,0,1-.06.53A111.14,111.14,0,0,0,55.29,36.73ZM56,16.22Q56,21,50.6,21a6,6,0,0,1-3.84-1.22,4.36,4.36,0,0,1-1.65-3.59,4.34,4.34,0,0,1,1.71-3.53,5.81,5.81,0,0,1,3.78-1.27,5.65,5.65,0,0,1,3.73,1.3A4.34,4.34,0,0,1,56,16.22Z" fill="#f49819"/><path d="M78.92,33.23c0,.72-.39,1.07-1.19,1.07q-.53,0-1.53-.06c-.67-.05-1.17-.07-1.5-.07a5,5,0,0,0-3.12.71,3.83,3.83,0,0,0-.83,2.9c0,.79,0,2,0,3.6s0,2.82,0,3.61c0,.53,0,1.33.11,2.38s.11,1.85.11,2.36-.3.69-.91.75c-.88.07-2.23.11-4,.11a39.16,39.16,0,0,1-4.2-.17c-.61-.07-.91-.37-.91-.91q0-2.2,0-6.61c0-2.93,0-5.14,0-6.61a40.2,40.2,0,0,0-1.18-10.68,1.83,1.83,0,0,1-.06-.42.55.55,0,0,1,.42-.55q1.51-.16,4.44-.6c2.91-.57,4.41-.86,4.5-.86q.5,0,.63,1.74c.1,1.16.26,1.74.5,1.74-.26,0,.5-.49,2.27-1.45a10.55,10.55,0,0,1,5.1-1.45c1,0,1.55.22,1.55.66A22,22,0,0,1,79,26.69c-.11,1-.17,1.8-.19,2.26s0,1.24,0,2.12C78.9,32.16,78.92,32.88,78.92,33.23Z" fill="#f49819"/><path d="M103.73,40.53a22.08,22.08,0,0,1,0,2.52,23.29,23.29,0,0,0,0,2.48,1.91,1.91,0,0,1-.09,1,3.22,3.22,0,0,1-.87.7A16,16,0,0,1,95,49.78q-8,.59-8.4-5.5c-.09-1.21-.17-3-.26-5.47s-.18-4.27-.26-5.48q-.09-1.2-1.5-1.11l-.35,0-.36,0c-.7.06-1.06-.17-1.1-.66,0-.3,0-.75,0-1.36s0-1.06,0-1.35-.1-1-.2-1.76-.17-1.37-.2-1.75.55-.62,1.72-.74c.66-.07,1-.28,1-.63a19.85,19.85,0,0,0-.13-3.31c-.25-2.36-.37-3.49-.36-3.38-.15-2.13,0-3.21.37-3.24a10.63,10.63,0,0,1,2.15.18,18.36,18.36,0,0,0,2.2.25c1,.06,2.37.13,4.28.21q.69,0,.72.42c.06.74.08,1.85.07,3.35s0,2.62.07,3.37c.06.9.36,1.33.89,1.29s1.62-.15,2.92-.3,2.28-.25,2.94-.3c.4,0,.61.1.63.37s0,1.06,0,1.91,0,1.49,0,1.91.09,1.08.17,1.93.14,1.48.17,1.92-.22.6-.75.64c-.37,0-1,.06-1.85.09s-1.48.07-1.85.1l-2.06.15c-.28,0-.39.43-.33,1.24,0,.44.08,1.09.15,1.95s.14,1.53.17,2a6.8,6.8,0,0,0,.75,3.15,3.21,3.21,0,0,0,3,1,8.75,8.75,0,0,0,1.94-.46A9.72,9.72,0,0,1,103.1,40,.53.53,0,0,1,103.73,40.53Z" fill="#f49819"/><path d="M136.16,30.92l-.06,19c0,.64-.25,1-.77,1.08s-1.93.11-4,.11a26.23,26.23,0,0,1-4.22-.23,1,1,0,0,1-.91-1.18c0-1.58,0-4,.08-7.15s.08-5.57.08-7.15q0-3.23-3.28-3.23a5.3,5.3,0,0,0-2.6.88c-1.08.65-1.63,1.32-1.63,2v6.82c0,.88,0,2.21.06,4s.06,3.11.06,4c0,.68-.29,1.06-.86,1.14s-2.17.11-4.8.11a16.41,16.41,0,0,1-3.26-.23q-1-.21-1-1c0-1.45,0-3.64,0-6.56s0-5.1,0-6.55q0-9-.19-14.94c-.06-1.38-.1-2.76-.14-4.14a27.81,27.81,0,0,0-.5-4.11,3,3,0,0,1-.08-.52.56.56,0,0,1,.41-.56,11.49,11.49,0,0,1,2.52-.3c1.47-.06,2.32-.1,2.56-.14l5-.58c.29,0,.44.2.44.58,0,.59,0,1.39-.11,2.4-.07,1.18-.11,2-.11,2.4q-.16,6.24-.17,9.86c0,.37.1.55.28.55a16.78,16.78,0,0,0,1.41-1,18.65,18.65,0,0,1,3.06-1.8,10.48,10.48,0,0,1,4.23-1,9.32,9.32,0,0,1,5.9,1.84A6.52,6.52,0,0,1,136.16,30.92Z" fill="#f49819"/><path d="M169.92,12.79c0-.41-.08.2-.22,1.82q-.3,3.06-.47,7.84Q169,27.87,169,34.76A143.23,143.23,0,0,0,169.64,51q.06.52.06.66c0,.21-.14.32-.42.36q-1,.14-7.31.14c-1,0-1.57-.19-1.71-.58,0-.7-.08-1.4-.11-2.1a.87.87,0,0,0-.22-.44,2.24,2.24,0,0,0-.42.33,10.2,10.2,0,0,1-7.45,2.93,11.67,11.67,0,0,1-9.33-4.09,14.52,14.52,0,0,1-3.34-9.82,14.81,14.81,0,0,1,3.28-9.91,11.63,11.63,0,0,1,9.39-4.14A8.19,8.19,0,0,1,158.55,27c.25.3.44.45.55.45s.25-.24.25-.72c0-1.42,0-3.53-.11-6.35s-.11-4.92-.11-6.32c0-.53.14-.84.44-.91,1.18-.06,2.79-.17,4.86-.33a41.46,41.46,0,0,0,4.88-.69C169.72,12.1,169.92,12.33,169.92,12.79ZM159.51,38.15A5.43,5.43,0,0,0,158,34.33a4.82,4.82,0,0,0-3.67-1.64,4.41,4.41,0,0,0-3.6,1.64,6.07,6.07,0,0,0-1.34,3.94,5.5,5.5,0,0,0,1.36,3.78,4.43,4.43,0,0,0,3.58,1.65,4.77,4.77,0,0,0,3.7-1.65A5.61,5.61,0,0,0,159.51,38.15Z" fill="#f49819"/><path d="M204.75,34.22q0,2.34.27,7c.18,3.07.28,5.38.28,6.92,0,.81-.36,1.24-1.07,1.3q-3.76.29-8.62.28c-.38,0-.64-.58-.77-1.75s-.29-1.75-.47-1.78a3,3,0,0,0-.64.52,10.18,10.18,0,0,1-7.29,3.43,12.23,12.23,0,0,1-9.8-4.67A15.73,15.73,0,0,1,173,35q0-7,3.8-11.29t10.81-4.43a9.23,9.23,0,0,1,7.52,3.34c.09.1.16.15.22.15s.39-.49.62-1.47.51-1.48.83-1.48a27.52,27.52,0,0,1,4.29.64c2,.41,3.44.75,4.31,1,.3.13.45.29.45.49a5.73,5.73,0,0,1-.09.64A66.48,66.48,0,0,0,204.75,34.22Zm-9.78.19a5.91,5.91,0,0,0-1.62-4.27,6.18,6.18,0,0,0-8.46,0,5.91,5.91,0,0,0-1.6,4.28,5.84,5.84,0,0,0,1.7,4.22,5.53,5.53,0,0,0,4.12,1.76,5.6,5.6,0,0,0,4.22-1.69A5.86,5.86,0,0,0,195,34.41Z" fill="#f49819"/><path d="M239.08,30.56a34.58,34.58,0,0,1-.72,6.48q-.5,1.35-6.62,9.62c-.64.86-2.28,2.86-4.92,6q-4.37,5.18-4.94,5.44T213.4,58a3.18,3.18,0,0,1-1.58-.37q-.3-1.15-.75-2.73c-.26-.66-.52-1.33-.77-2a6.11,6.11,0,0,1-.52-1.93c0-.35.19-.52.5-.5,5.1.3,7.73-.71,7.86-3.05a48.23,48.23,0,0,0-3.42-5.7q-3.57-5.55-3.87-7A36.86,36.86,0,0,1,211,29c0-.67.12-1.66.24-3s.19-2.33.23-3c0-.48.34-.7.95-.66.94.05,2.35.17,4.25.33s3.32.28,4.25.34c.39,0,.57.32.53.89s-.1,1.29-.22,2.32-.19,1.81-.22,2.32c-.13,2.32-.19,3.89-.17,4.72A11.09,11.09,0,0,0,222.25,37c1,1.89,1.74,2.84,2.23,2.87s1.19-.83,2.31-2.57a12.83,12.83,0,0,0,1.72-3.36,48.38,48.38,0,0,0,.59-5.24c0-.5,0-1.26,0-2.27s0-1.78,0-2.3c0-.35.22-.51.61-.49.94.06,2.34.11,4.21.14s3.27.09,4.21.14a1,1,0,0,1,.92.77A26.49,26.49,0,0,1,239.08,30.56Z" fill="#f49819"/><path d="M279.36,42.69a2.28,2.28,0,0,1-.62,1.24,18,18,0,0,1-14.54,6.51q-9.27,0-15-6.33-5.61-6.12-5.61-15.45A22.53,22.53,0,0,1,249,13.32a18.5,18.5,0,0,1,14.6-6.6q9.63,0,15.1,5.91a1.91,1.91,0,0,1,.59,1.16,18.73,18.73,0,0,1-2.06,4.2,25.28,25.28,0,0,1-2.6,4.07.81.81,0,0,1-.6.23,7.73,7.73,0,0,1-1.48-1.18,15.59,15.59,0,0,0-3.16-2.23,10.55,10.55,0,0,0-4.87-1.19,8.51,8.51,0,0,0-7,3.27,11.69,11.69,0,0,0-2.4,7.49,11.91,11.91,0,0,0,2.4,7.58,8.45,8.45,0,0,0,7,3.33,11.07,11.07,0,0,0,4.9-1.13,15.42,15.42,0,0,0,3.1-2.08A7.25,7.25,0,0,1,274,35a.86.86,0,0,1,.6.32c.31.36,1.18,1.6,2.58,3.72A21.24,21.24,0,0,1,279.36,42.69Z" fill="#25acc9"/><path d="M311.43,28.61l1,19c0,.65-.2,1-.71,1.12s-1.92.22-4,.34a27.49,27.49,0,0,1-4.23,0,1.05,1.05,0,0,1-1-1.13c-.09-1.58-.19-4-.32-7.15s-.22-5.56-.31-7.14q-.18-3.22-3.46-3a5.28,5.28,0,0,0-2.54,1c-1.05.71-1.55,1.41-1.52,2.11l.38,6.81c0,.88.14,2.2.28,4s.23,3.1.28,4c0,.68-.23,1.08-.79,1.18s-2.17.23-4.79.38a17.18,17.18,0,0,1-3.27,0c-.67-.11-1-.41-1-.91-.08-1.45-.2-3.63-.34-6.55s-.26-5.09-.34-6.54q-.5-9-1-14.9c-.13-1.38-.26-2.75-.37-4.13a28.74,28.74,0,0,0-.72-4.08,3.13,3.13,0,0,1-.12-.52.55.55,0,0,1,.39-.57,10.76,10.76,0,0,1,2.49-.45c1.47-.13,2.32-.23,2.55-.28l5-.85c.29,0,.45.17.47.55,0,.59,0,1.39,0,2.41,0,1.18,0,2,0,2.4q.18,6.24.38,9.85c0,.37.12.54.31.53a16.32,16.32,0,0,0,1.35-1,18.41,18.41,0,0,1,3-2,10.54,10.54,0,0,1,4.16-1.2,9.26,9.26,0,0,1,6,1.52A6.49,6.49,0,0,1,311.43,28.61Z" fill="#25acc9"/><path d="M352.17,32.56c.1,1.63.35,4,.73,7.24s.64,5.59.74,7.2c.05.84-.29,1.32-1,1.43-2.6.35-5.6.63-9,.84-.4,0-.71-.56-.92-1.77s-.41-1.81-.6-1.82a2.57,2.57,0,0,0-.63.58,10.66,10.66,0,0,1-7.39,4.05,12.78,12.78,0,0,1-10.53-4.25,16.41,16.41,0,0,1-4.5-10.66c-.31-4.88.77-8.88,3.23-12s6.21-5,11-5.32a9.71,9.71,0,0,1,8.07,3,.37.37,0,0,0,.23.15c.19,0,.37-.54.55-1.58s.44-1.57.78-1.59a27.53,27.53,0,0,1,4.51.39,44.57,44.57,0,0,1,4.56.8c.33.1.49.26.51.47s0,.31-.06.68A70,70,0,0,0,352.17,32.56ZM342,33.38A6.16,6.16,0,0,0,340,29a6.46,6.46,0,0,0-8.82.53,6.59,6.59,0,0,0,.64,8.87A5.82,5.82,0,0,0,336.26,40a5.89,5.89,0,0,0,4.29-2A6.17,6.17,0,0,0,342,33.38Z" fill="#25acc9"/><path d="M381.79,38.74a23.59,23.59,0,0,1,.25,2.51,20.11,20.11,0,0,0,.24,2.47,2,2,0,0,1,0,1,3.46,3.46,0,0,1-.79.79,16.11,16.11,0,0,1-7.41,3.34q-7.85,1.44-8.94-4.57c-.22-1.19-.5-3-.85-5.41s-.63-4.22-.85-5.42c-.14-.79-.68-1.11-1.6-.94l-.35.06-.35.1c-.69.12-1.08-.06-1.17-.55-.05-.29-.11-.74-.17-1.34s-.13-1.06-.18-1.35-.2-.95-.38-1.72-.32-1.35-.39-1.73.48-.66,1.63-.91c.65-.14,1-.38,1-.74a21.6,21.6,0,0,0-.48-3.28c-.5-2.32-.74-3.42-.72-3.32-.38-2.1-.38-3.18,0-3.25a9.9,9.9,0,0,1,2.15-.06,21.08,21.08,0,0,0,2.22,0l4.28-.25c.46-.05.71.07.76.34.13.72.27,1.83.42,3.32s.3,2.6.43,3.34.51,1.28,1,1.19,1.59-.32,2.86-.61,2.24-.49,2.9-.61c.39-.07.62,0,.67.3s.14,1.05.2,1.9a17.1,17.1,0,0,0,.21,1.89c.08.44.2,1.07.37,1.9s.3,1.46.38,1.9-.16.61-.69.71c-.36.07-1,.16-1.82.29l-1.83.29-2,.37c-.27.05-.33.48-.19,1.27.08.44.2,1.08.35,1.93s.31,1.51.38,1.92a6.85,6.85,0,0,0,1.09,3.06,3.22,3.22,0,0,0,3.1.64,8.73,8.73,0,0,0,1.88-.66,8.88,8.88,0,0,1,1.72-.64A.53.53,0,0,1,381.79,38.74Z" fill="#25acc9"/><circle cx="316.75" cy="5.87" r="4.92" fill="#25acc9"/><circle cx="331.91" cy="5.87" r="5.87" fill="#25acc9"/><circle cx="347.07" cy="5.87" r="4.92" fill="#25acc9"/></g></svg>